<?xml version="1.0" standalone="no"?>
<!DOCTYPE svg PUBLIC "-//W3C//DTD SVG 20010904//EN"
 "http://www.w3.org/TR/2001/REC-SVG-20010904/DTD/svg10.dtd">
<svg version="1.0" xmlns="http://www.w3.org/2000/svg"
 width="400.000000pt" height="400.000000pt" viewBox="0 0 400.000000 400.000000"
 preserveAspectRatio="xMidYMid meet">
<metadata>
Created by potrace 1.11, written by Peter Selinger 2001-2013
</metadata>
<g transform="translate(0.000000,400.000000) scale(0.100000,-0.100000)"
fill="#000000" stroke="none">
<path d="M1795 3990 c-3 -6 1 -7 9 -4 18 7 21 14 7 14 -6 0 -13 -4 -16 -10z"/>
<path d="M1878 3983 c15 -11 12 -13 -21 -9 -24 2 -43 -2 -53 -11 -8 -8 -14
-10 -14 -4 0 6 -5 11 -11 11 -5 0 -8 -3 -5 -8 2 -4 -7 -12 -20 -19 -13 -6 -22
-8 -19 -3 3 4 -2 11 -11 14 -11 4 -15 2 -11 -8 4 -11 0 -13 -16 -10 -12 3 -26
6 -32 7 -5 2 -15 6 -22 10 -8 5 -11 1 -8 -14 3 -15 0 -19 -11 -15 -9 3 -12 1
-9 -4 3 -6 -1 -10 -10 -10 -10 0 -13 5 -9 13 4 7 3 9 -2 4 -5 -5 -10 -13 -10
-18 -1 -5 -2 -12 -3 -16 0 -4 -8 2 -17 13 -8 10 -13 14 -10 7 10 -19 -12 -25
-23 -6 -6 11 -11 13 -11 5 0 -7 -6 -10 -12 -7 -7 4 -4 -1 6 -9 23 -19 14 -21
-16 -5 -18 10 -20 9 -15 -5 3 -8 1 -18 -5 -22 -7 -4 -8 -3 -4 4 4 7 3 12 -3
12 -6 0 -8 8 -4 18 7 18 5 17 -17 -12 -13 -18 -13 -19 0 -11 13 8 13 7 0 -9
-8 -11 -16 -14 -18 -7 -2 6 -8 11 -13 11 -6 0 -8 -3 -6 -7 3 -5 -1 -14 -9 -21
-12 -11 -14 -9 -15 10 -1 21 -2 21 -6 3 -3 -11 -12 -29 -20 -40 -12 -16 -14
-16 -10 -2 8 21 -11 23 -20 2 -5 -14 -7 -14 -23 0 -14 13 -17 13 -17 0 0 -8 3
-12 7 -10 4 2 7 -2 7 -10 0 -12 -4 -12 -20 2 -19 17 -20 17 -14 0 4 -11 3 -16
-3 -12 -6 3 -10 1 -10 -5 0 -6 -4 -8 -10 -5 -5 3 -10 1 -10 -5 0 -6 -5 -8 -12
-4 -7 5 -9 2 -6 -7 4 -11 -2 -15 -21 -14 -18 0 -25 -5 -23 -15 3 -12 1 -12 -9
-3 -8 8 -9 17 -3 26 5 7 1 4 -8 -6 -10 -11 -18 -24 -18 -31 0 -6 5 -4 10 4 5
8 10 10 10 4 0 -6 -7 -17 -15 -24 -8 -7 -15 -9 -15 -6 0 4 -10 1 -22 -5 -21
-11 -22 -11 -9 4 7 10 9 17 3 17 -14 0 -23 -28 -11 -35 5 -4 7 -11 3 -16 -3
-5 -11 -6 -17 -2 -7 4 -19 8 -27 10 -10 1 -9 -3 5 -14 19 -15 19 -15 -5 -8
-22 7 -23 6 -12 -8 10 -12 10 -17 1 -23 -7 -4 -9 -3 -6 3 4 6 0 13 -7 16 -10
4 -13 0 -11 -14 3 -16 1 -18 -17 -8 -16 9 -19 8 -13 -2 6 -9 3 -11 -9 -6 -9 4
-14 3 -11 -2 3 -5 -4 -13 -16 -16 -11 -4 -18 -9 -16 -12 3 -2 19 3 36 11 27
15 30 15 24 1 -3 -9 -7 -14 -10 -11 -2 2 -16 -2 -30 -9 -15 -8 -30 -12 -35 -9
-5 3 -7 1 -6 -5 2 -5 -6 -17 -17 -26 -11 -9 -15 -14 -9 -11 15 8 26 -21 12
-30 -7 -4 -8 -3 -4 4 4 7 1 12 -9 12 -9 0 -13 -4 -10 -10 3 -6 -1 -7 -9 -4
-11 4 -16 0 -16 -11 0 -9 4 -14 9 -10 5 3 13 0 17 -7 4 -7 4 -10 -1 -6 -4 4
-23 -6 -42 -22 -19 -17 -38 -28 -43 -25 -4 3 -11 -2 -14 -11 -3 -8 -11 -12
-16 -9 -6 4 -10 3 -9 -2 3 -19 -2 -34 -9 -29 -5 3 -9 -2 -9 -10 0 -10 4 -11
11 -4 5 5 15 10 20 10 6 0 0 -7 -13 -16 -18 -13 -20 -18 -10 -25 10 -6 10 -9
2 -9 -6 0 -14 4 -18 10 -7 11 -35 2 -35 -12 0 -6 7 -5 15 2 13 11 14 10 9 -4
-3 -9 -10 -16 -15 -16 -5 0 -9 -5 -9 -11 0 -5 5 -7 10 -4 6 3 10 2 10 -3 0 -6
-7 -12 -15 -16 -8 -3 -14 -11 -13 -18 2 -8 -6 -13 -20 -12 -18 1 -20 -1 -11
-12 11 -14 2 -19 -24 -15 -4 1 -3 -8 3 -19 6 -12 7 -20 1 -20 -5 0 -12 6 -14
13 -3 6 -6 0 -6 -15 -1 -16 -4 -27 -8 -27 -20 3 -23 -3 -12 -22 6 -12 7 -19 1
-15 -5 3 -13 -1 -16 -10 -3 -8 -11 -12 -17 -8 -7 4 -9 3 -6 -3 3 -5 -1 -22 -9
-37 -17 -34 -17 -36 -3 -36 5 0 8 4 5 9 -3 5 1 14 8 20 10 9 16 9 21 1 4 -6 1
-9 -6 -8 -7 2 -13 -2 -14 -8 0 -6 -8 -18 -18 -28 -9 -10 -17 -22 -17 -27 0 -6
-4 -8 -9 -4 -5 3 -12 1 -15 -4 -7 -10 20 -9 30 2 4 4 12 7 18 7 6 0 2 -7 -8
-15 -11 -8 -16 -15 -12 -15 5 0 3 -6 -3 -13 -6 -8 -7 -18 -3 -22 4 -5 1 -5 -6
-1 -10 6 -10 11 -1 22 8 10 8 14 0 14 -6 0 -11 -3 -12 -7 0 -5 -2 -16 -4 -25
-2 -10 1 -18 6 -18 6 0 7 -5 4 -10 -4 -6 -10 -8 -15 -5 -5 3 -12 0 -16 -6 -4
-8 -3 -9 4 -5 7 4 12 1 12 -9 0 -11 -5 -15 -16 -11 -8 3 -12 2 -9 -4 3 -6 1
-10 -4 -10 -19 0 -12 -27 11 -44 23 -16 23 -16 1 -6 -23 11 -42 -3 -22 -16 8
-5 9 -3 4 6 -6 9 -4 11 5 5 10 -6 9 -11 -4 -21 -11 -8 -13 -14 -6 -19 6 -4 2
-14 -12 -26 -13 -12 -18 -18 -13 -15 6 2 17 1 25 -5 12 -7 11 -9 -5 -9 -12 0
-16 -3 -9 -8 6 -4 14 -16 18 -27 4 -11 4 -16 0 -13 -13 14 -32 -16 -22 -35 5
-10 7 -23 4 -30 -2 -7 -5 -5 -5 4 -1 9 -7 21 -14 27 -10 8 -13 6 -14 -11 -2
-17 0 -19 7 -7 6 9 10 10 10 3 0 -6 -4 -14 -9 -18 -6 -3 -9 -110 -9 -251 1
-237 2 -246 22 -262 25 -19 30 -55 14 -86 -10 -19 -10 -20 6 -7 15 12 16 12 9
-5 -3 -10 -11 -22 -16 -25 -5 -4 0 -10 12 -14 19 -6 31 -27 14 -24 -20 3 -24
-2 -14 -15 6 -8 10 -20 9 -27 -2 -7 6 -14 17 -16 l20 -3 -20 9 c-19 9 -19 10
3 10 26 1 29 -14 4 -28 -15 -9 -14 -10 8 -11 20 0 22 -2 10 -10 -12 -8 -12
-10 -1 -10 11 0 11 -3 0 -16 -12 -15 -11 -16 11 -10 14 4 20 4 15 -1 -18 -14
-1 -67 19 -56 6 3 8 3 4 -2 -4 -4 -3 -14 3 -21 7 -8 6 -14 -2 -20 -8 -5 -9 -3
-4 6 5 9 4 11 -3 6 -9 -5 -9 -12 0 -26 7 -10 16 -17 20 -14 4 3 5 -2 2 -10 -3
-9 -11 -13 -18 -9 -7 4 -7 1 1 -9 7 -8 10 -18 7 -21 -4 -4 3 -5 15 -2 24 4 27
-5 8 -24 -10 -11 -8 -12 8 -7 17 5 21 1 21 -17 0 -12 -5 -26 -10 -30 -7 -5 -3
-6 8 -3 14 5 17 2 12 -10 -4 -10 -2 -14 6 -11 7 2 12 10 10 16 -1 7 2 10 8 6
8 -5 8 -11 0 -20 -8 -9 -7 -14 3 -18 9 -3 13 -16 12 -31 -3 -26 10 -36 17 -14
3 7 7 5 11 -6 4 -9 3 -15 -2 -11 -5 3 -12 1 -16 -5 -3 -5 0 -10 8 -10 21 0 38
-44 24 -60 -9 -10 -9 -11 0 -6 7 4 13 2 13 -4 0 -6 4 -9 9 -5 5 3 12 -4 16
-15 4 -11 11 -18 16 -15 5 3 6 -2 2 -11 -5 -13 -3 -15 8 -9 12 8 12 6 0 -8
-12 -16 -12 -17 5 -10 16 6 17 5 6 -9 -9 -11 -10 -18 -2 -23 6 -3 7 -12 3 -18
-3 -7 4 -3 16 8 16 14 22 15 19 5 -2 -8 -9 -20 -16 -25 -11 -9 -10 -11 5 -12
28 -2 52 -8 59 -16 4 -3 -3 -5 -14 -2 -12 2 -24 -1 -28 -6 -3 -5 -2 -9 3 -8
19 3 33 -2 33 -12 0 -5 -6 -7 -12 -3 -10 6 -10 5 -1 -8 7 -8 9 -19 5 -23 -4
-5 -2 -5 5 -1 6 3 14 2 18 -4 3 -5 11 -10 17 -10 5 0 0 8 -13 18 -17 15 -19
21 -9 27 8 5 11 4 6 -3 -3 -6 3 -16 14 -22 18 -10 19 -14 8 -28 -7 -9 -8 -13
-2 -9 11 6 28 -26 25 -46 -1 -4 5 -6 11 -5 8 2 12 -6 11 -19 -2 -13 1 -23 6
-23 6 0 9 -9 8 -19 0 -11 -4 -18 -8 -15 -4 2 -10 0 -14 -5 -3 -6 -12 -8 -20
-5 -8 4 -12 11 -8 17 3 6 1 7 -6 3 -9 -6 -9 -11 0 -22 10 -12 9 -13 -6 -8 -11
5 -16 4 -12 -3 3 -5 0 -10 -8 -10 -11 0 -12 5 -3 21 11 21 11 21 -11 1 -18
-16 -26 -17 -41 -7 -13 8 -21 8 -26 1 -3 -6 -12 -8 -19 -6 -8 4 -11 -3 -9 -19
1 -13 -2 -22 -6 -19 -5 3 -11 1 -15 -5 -3 -5 -16 -10 -28 -10 -20 0 -20 0 -1
-15 19 -15 19 -15 -1 -8 -11 3 -17 3 -13 -2 4 -4 2 -17 -4 -29 -11 -20 -10
-20 7 -6 10 8 16 9 11 3 -4 -7 1 -20 13 -29 11 -10 17 -24 13 -32 -4 -11 -1
-14 11 -9 12 4 14 2 10 -10 -4 -10 -2 -14 4 -10 6 4 21 -5 32 -19 12 -15 21
-23 21 -19 0 5 -7 16 -16 26 -12 13 -12 19 -3 25 8 4 10 3 5 -4 -7 -12 1 -15
36 -15 10 0 15 -4 11 -10 -4 -7 0 -8 12 -3 14 5 15 3 7 -6 -7 -9 -5 -17 6 -28
14 -13 15 -12 9 3 -8 22 9 22 23 0 9 -14 10 -11 5 17 -4 27 -3 30 4 14 5 -12
15 -25 22 -30 7 -4 10 -3 5 4 -3 6 -2 13 4 17 5 3 10 -1 10 -10 0 -15 1 -15
16 -1 17 17 25 20 23 9 -3 -19 2 -33 12 -33 5 0 7 5 4 10 -3 6 1 10 9 10 9 0
16 -5 16 -12 0 -6 6 -4 13 7 11 14 16 15 22 5 6 -9 4 -11 -5 -5 -9 5 -11 4 -6
-4 6 -9 11 -9 22 0 7 6 11 16 7 22 -3 6 -1 7 6 3 6 -4 9 -11 6 -16 -3 -4 9 -6
26 -3 23 3 29 1 24 -8 -6 -8 -4 -10 5 -4 10 6 9 11 -5 22 -11 7 -14 13 -7 13
6 0 18 -10 28 -22 11 -16 15 -17 11 -5 -4 9 -2 17 3 17 6 0 10 -5 10 -12 0 -6
6 -4 13 6 13 17 14 17 28 0 7 -10 9 -15 2 -11 -6 4 -15 3 -18 -3 -4 -6 -3 -10
2 -9 28 5 53 -3 53 -17 0 -9 5 -12 12 -8 7 5 9 0 6 -14 -4 -13 -2 -20 6 -19 6
1 10 -4 9 -11 -2 -6 2 -12 7 -12 13 0 13 13 0 26 -6 6 -3 10 9 10 11 0 17 -6
14 -12 -7 -19 17 -56 33 -50 8 3 13 0 11 -7 -1 -7 4 -11 12 -9 9 2 11 -3 7
-14 -5 -13 -4 -14 7 -6 10 9 17 6 30 -8 9 -11 13 -20 7 -20 -5 0 -13 7 -18 16
-8 14 -10 14 -14 -4 -4 -14 -2 -19 7 -16 7 3 19 -2 28 -10 9 -9 23 -16 31 -16
9 0 16 -5 16 -11 0 -5 4 -7 10 -4 5 3 7 0 4 -9 -3 -9 3 -19 16 -26 11 -6 17
-16 14 -22 -5 -8 -1 -9 11 -4 16 6 16 4 4 -10 -13 -16 -12 -16 8 -6 30 16 38
15 23 -3 -7 -9 -10 -18 -6 -22 3 -3 6 -1 6 6 0 8 5 7 16 -4 10 -10 24 -13 38
-9 21 6 21 6 1 -10 -19 -15 -19 -16 -1 -9 13 4 17 3 12 -5 -4 -7 -1 -12 8 -12
9 0 16 -4 16 -10 0 -5 -8 -7 -17 -3 -15 5 -14 3 2 -10 12 -10 24 -12 29 -6 11
10 46 -17 46 -35 0 -6 -5 -4 -10 4 -8 13 -10 12 -10 -2 0 -10 7 -18 15 -18 8
0 15 8 15 17 0 23 9 12 13 -18 3 -18 9 -23 26 -21 19 3 26 -7 22 -32 -1 -5 6
-3 15 5 12 9 15 9 10 2 -4 -8 -2 -13 4 -13 6 0 8 -4 5 -10 -3 -5 2 -10 12 -10
29 -1 53 -25 48 -49 -2 -12 0 -19 6 -16 5 4 7 11 4 16 -4 5 1 9 10 9 12 0 15
-6 10 -22 -3 -13 -3 -18 2 -12 4 6 15 13 24 16 17 7 23 -19 8 -38 -11 -14 95
-13 108 0 4 5 3 6 -4 2 -9 -5 -13 0 -12 16 0 13 3 17 6 11 7 -18 16 -16 47 8
23 18 25 23 14 37 -12 14 -10 14 11 2 21 -11 23 -10 18 4 -4 9 0 19 11 24 21
12 44 4 36 -11 -5 -8 -2 -8 6 0 12 11 11 15 -6 28 -16 13 -17 14 -1 9 10 -4
17 -2 15 4 -2 5 2 10 7 11 6 1 10 -3 10 -8 0 -5 3 -12 7 -16 3 -4 5 5 4 19 -2
14 2 24 8 23 6 -1 10 7 8 18 -2 12 0 16 5 9 4 -6 17 -14 27 -17 16 -6 17 -5 6
8 -13 16 -9 18 25 16 11 -1 16 2 10 6 -13 10 -18 36 -6 29 5 -4 14 2 20 11 6
10 11 13 11 8 0 -6 -5 -16 -10 -21 -8 -8 -5 -15 7 -25 16 -13 17 -12 4 4 -12
15 -9 21 11 18 3 0 5 10 4 23 -2 18 1 22 16 18 10 -2 18 1 18 7 0 7 -4 9 -10
6 -16 -10 -11 1 7 16 10 8 14 9 10 2 -4 -6 -3 -14 3 -18 5 -3 10 -1 10 5 0 6
5 8 11 4 7 -4 7 2 -1 17 -7 13 -9 21 -5 17 4 -4 21 2 37 14 25 17 32 18 39 7
5 -8 9 -9 9 -4 0 6 -4 15 -10 21 -6 6 -5 15 1 24 10 13 10 13 6 0 -3 -10 2
-16 12 -16 10 0 18 6 18 13 0 7 -5 9 -10 6 -6 -3 -7 -1 -3 6 4 6 11 9 16 6 5
-3 11 -1 15 5 4 6 11 8 16 5 5 -3 6 1 2 10 -5 14 -8 14 -15 3 -8 -10 -9 -10
-5 2 2 8 9 15 15 15 13 0 81 72 75 79 -3 3 5 2 16 -1 27 -7 66 24 51 42 -11
13 -4 25 14 25 7 0 7 -3 0 -8 -8 -5 -7 -11 4 -22 14 -13 15 -13 10 1 -3 8 3
30 14 49 10 19 17 27 14 18 -9 -31 12 -29 39 4 15 18 24 27 20 21 -4 -8 0 -13
9 -13 9 0 16 -6 16 -12 0 -8 3 -9 8 -3 4 6 16 11 27 13 11 2 29 4 40 6 11 1
31 -4 44 -12 13 -8 21 -10 17 -4 -3 5 1 12 9 16 8 3 17 0 21 -6 5 -7 2 -8 -6
-3 -9 6 -11 4 -5 -5 6 -10 11 -10 20 4 12 15 13 15 20 -1 6 -17 7 -17 21 1 13
18 59 32 49 15 -3 -4 2 -9 9 -12 10 -4 14 0 11 13 -2 11 1 23 7 26 6 4 8 3 5
-3 -4 -6 1 -19 9 -29 9 -10 13 -13 9 -6 -3 6 -1 12 6 12 8 0 9 4 0 13 -8 10
-7 14 4 14 8 0 12 -4 9 -9 -3 -4 -1 -8 5 -8 6 0 7 -7 4 -17 -4 -11 -3 -14 5
-9 7 4 10 19 8 34 -5 24 -4 25 8 9 13 -17 14 -17 18 1 3 10 13 20 22 21 9 1
25 2 36 3 18 2 24 11 21 31 0 4 5 7 13 7 17 0 29 27 16 35 -6 4 -10 11 -10 17
0 6 7 5 18 -3 15 -12 16 -12 5 2 -7 9 -10 19 -6 22 3 4 -2 9 -11 13 -9 3 -13
11 -9 17 3 6 1 7 -6 3 -6 -4 -9 -11 -7 -15 3 -3 -4 -7 -14 -7 -16 0 -16 2 -2
24 12 19 12 22 1 20 -8 -2 -13 3 -11 12 2 8 0 12 -4 8 -4 -4 -14 -2 -23 5 -14
11 -14 10 -2 -5 8 -11 9 -18 3 -18 -6 0 -13 4 -17 10 -3 6 -15 6 -30 0 -19 -7
-26 -6 -34 8 -5 9 -13 14 -17 10 -3 -4 -16 -3 -28 3 -20 10 -20 9 -2 -5 10 -9
23 -13 29 -9 6 3 7 1 3 -5 -10 -16 -47 4 -53 29 -3 10 -9 16 -14 13 -5 -3 -7
-10 -4 -15 4 -5 -2 -6 -11 -2 -11 4 -13 8 -6 11 7 2 12 8 12 13 0 6 -4 8 -8 5
-4 -2 -14 4 -21 16 -10 16 -10 18 0 12 9 -5 10 -2 6 10 -4 10 -3 15 3 11 6 -3
10 -1 10 6 0 7 7 4 15 -7 13 -16 14 -16 9 -1 -3 9 -1 23 5 31 6 7 9 15 7 17
-2 2 3 10 11 18 13 12 14 11 8 -8 -4 -14 -2 -21 6 -21 7 0 9 3 6 7 -4 3 1 12
11 20 9 8 12 12 6 9 -7 -3 -14 3 -17 14 -3 11 -2 19 2 18 19 -2 31 3 26 12 -3
5 0 7 8 4 8 -3 18 0 23 7 4 7 3 10 -3 6 -6 -4 -14 1 -17 10 -4 10 -4 14 0 11
12 -13 33 16 22 30 -8 9 -7 11 5 6 14 -5 35 18 35 39 0 5 4 12 8 15 4 4 4 1 0
-6 -4 -6 -2 -12 3 -12 6 0 11 7 11 15 0 8 -5 15 -12 15 -6 0 -9 2 -6 5 9 10
38 -7 31 -18 -3 -6 -1 -7 6 -3 6 4 9 12 5 17 -3 5 0 16 6 24 9 11 9 15 1 15
-6 0 -11 -4 -11 -10 0 -5 -5 -10 -10 -10 -6 0 -6 7 2 19 7 11 18 17 27 13 13
-5 14 -3 4 9 -11 13 -8 19 12 37 14 12 25 17 25 10 0 -6 3 -9 6 -5 3 3 2 12
-2 19 -5 7 -10 22 -11 32 -3 17 -1 17 18 -5 14 -15 20 -18 16 -7 -3 9 -3 19 1
21 4 2 2 2 -5 1 -7 -2 -10 3 -6 11 3 8 9 12 14 9 5 -3 9 -1 9 5 0 5 -5 11 -12
13 -7 3 -5 7 6 11 10 4 15 3 11 -3 -3 -6 -1 -10 5 -10 6 0 8 10 4 26 -5 20 -4
25 5 19 15 -9 11 26 -4 38 -6 5 -4 7 5 4 8 -2 14 -9 13 -15 -2 -6 4 -9 13 -5
13 5 13 7 2 14 -12 8 -4 13 16 10 5 -1 4 4 -3 12 -9 12 -8 16 4 21 8 3 14 10
13 15 -2 5 6 17 17 26 20 16 20 16 -2 5 -14 -6 -23 -7 -23 -1 0 5 9 13 20 16
17 5 18 9 8 28 -10 19 -9 20 3 10 13 -10 15 -4 15 42 -1 29 1 52 3 50 2 -3 12
0 23 6 16 9 17 13 6 27 -11 14 -11 15 5 9 10 -4 16 -3 12 2 -3 5 -1 12 5 16 6
4 8 10 5 15 -3 5 3 14 12 20 17 10 16 10 -2 8 -16 -2 -20 3 -21 29 0 18 3 30
7 27 4 -2 6 -13 4 -24 -3 -13 1 -17 12 -13 8 3 11 9 6 12 -7 6 -8 19 -4 63 0
9 9 19 19 21 16 4 16 5 0 6 -10 0 -18 6 -18 12 0 6 7 8 17 5 15 -6 15 -4 -2
14 -10 11 -15 23 -12 27 4 3 7 2 7 -4 0 -5 7 -10 15 -10 13 0 12 4 -2 20 -10
11 -12 17 -5 13 7 -4 12 -1 12 8 0 9 -5 16 -11 16 -6 0 -3 7 6 16 14 15 14 19
1 39 -13 20 -13 24 -1 29 8 3 15 12 15 20 0 8 8 20 18 25 9 6 11 11 5 11 -7 0
-13 5 -13 11 0 5 5 7 12 3 7 -4 8 -3 4 4 -4 6 -14 8 -23 5 -11 -4 -14 -3 -9 5
4 7 13 12 20 12 8 0 12 15 13 40 0 22 -3 40 -7 40 -4 0 -6 -13 -5 -28 2 -20
-4 -33 -19 -42 -18 -12 -19 -11 -9 2 7 8 10 18 6 21 -3 4 0 7 8 7 11 0 11 2
-1 10 -10 6 -11 10 -2 10 6 0 11 3 11 8 -3 20 2 32 13 26 7 -4 8 -3 4 5 -6 9
-11 9 -24 -1 -14 -12 -14 -10 -3 10 13 25 8 57 -8 47 -5 -3 -13 0 -17 6 -4 8
-3 9 4 5 15 -9 16 16 1 31 -9 9 -6 10 12 6 l24 -6 -25 22 c-14 12 -20 20 -14
17 7 -3 15 1 18 9 3 9 0 18 -8 21 -8 3 -13 18 -12 35 0 20 5 28 14 24 7 -3 10
0 7 5 -3 6 -12 10 -19 10 -8 0 -11 10 -8 30 2 17 9 30 15 30 6 0 7 3 4 6 -4 4
-13 1 -22 -6 -9 -7 -18 -10 -22 -6 -3 3 -1 6 6 6 10 0 9 7 -4 26 -9 15 -12 24
-7 20 6 -3 13 0 16 6 3 7 4 4 3 -6 -1 -10 4 -20 11 -22 7 -1 8 0 3 2 -6 3 -8
11 -5 19 3 7 0 16 -5 20 -6 3 -8 11 -5 17 4 7 2 8 -5 4 -6 -4 -9 -12 -6 -17 4
-5 2 -9 -4 -9 -5 0 -9 9 -8 20 1 11 6 20 11 20 5 0 1 7 -10 16 -10 8 -13 12
-5 8 10 -5 13 -3 8 9 -3 9 -1 17 6 20 6 2 3 6 -7 10 -9 4 -15 3 -11 -2 3 -5 1
-12 -4 -15 -11 -7 -9 13 3 33 7 10 3 12 -15 6 -23 -7 -23 -6 -5 7 19 15 14 44
-6 32 -7 -5 -9 4 -6 24 4 25 2 29 -9 21 -16 -14 -17 3 -1 19 9 9 8 15 -8 28
-10 8 -14 13 -8 10 7 -3 14 1 17 9 4 10 1 12 -11 8 -9 -4 -20 -11 -23 -16 -3
-5 -9 -1 -12 8 -4 9 -3 14 2 11 10 -6 25 24 16 32 -3 3 -5 0 -5 -6 0 -7 -5
-12 -11 -12 -5 0 -8 4 -4 9 3 6 -3 14 -12 20 -15 8 -15 10 -3 11 9 0 16 9 16
19 0 11 -4 19 -7 18 -4 -1 -15 7 -24 18 -16 19 -16 18 -1 -7 23 -39 20 -49 -4
-13 -18 27 -18 31 -4 42 10 7 11 13 5 18 -6 3 -11 1 -11 -4 0 -6 -8 -11 -17
-11 -14 0 -15 2 -5 9 10 6 10 10 -2 20 -8 6 -16 8 -18 4 -3 -4 -3 -3 -2 4 2 7
-2 16 -8 19 -8 5 -5 10 8 15 17 7 17 8 2 8 -10 1 -18 6 -18 12 0 5 -4 7 -10 4
-6 -4 -7 1 -3 11 5 14 3 16 -12 10 -11 -4 -16 -4 -12 0 4 4 1 14 -6 22 -10 13
-9 14 3 7 8 -4 12 -5 8 0 -4 4 -2 15 5 24 10 14 10 14 -5 3 -11 -9 -22 -11
-34 -4 -15 8 -15 9 0 15 11 5 15 3 10 -5 -4 -7 -3 -8 5 -4 15 10 3 29 -15 22
-8 -3 -14 1 -14 9 0 9 -10 15 -22 16 l-23 0 23 9 c12 5 22 12 22 14 0 3 -7 2
-17 -1 -10 -4 -14 -2 -10 4 4 6 0 13 -8 16 -10 4 -12 1 -8 -11 3 -9 -6 -1 -20
18 -15 19 -30 40 -35 45 -5 6 -8 19 -6 29 1 10 0 15 -3 12 -3 -3 -13 2 -21 12
-9 11 -9 8 2 -10 19 -33 -2 -30 -23 4 -11 17 -11 22 1 29 8 6 1 8 -19 5 -18
-2 -32 -1 -31 3 2 19 -4 24 -13 11 -9 -13 -10 -13 -6 1 3 9 0 22 -6 29 -9 10
-9 11 0 6 6 -3 14 -2 17 3 7 11 -13 9 -32 -2 -8 -5 -15 -2 -19 10 -4 10 -15
25 -25 34 -10 9 -14 20 -10 24 4 4 -3 3 -15 -4 -31 -16 -38 -14 -22 6 10 11
10 14 2 9 -8 -4 -13 -2 -13 5 0 7 -8 9 -21 6 -16 -4 -18 -3 -8 9 11 13 2 19
-23 15 -5 0 -8 5 -8 12 0 8 -4 7 -10 -3 -5 -8 -10 -10 -10 -4 0 5 5 15 10 22
6 6 7 10 4 7 -4 -3 -13 3 -21 13 -12 16 -13 15 -6 -3 6 -17 4 -18 -9 -8 -8 7
-19 9 -23 5 -5 -4 -6 0 -3 9 4 9 1 16 -7 16 -7 0 -11 -7 -8 -16 2 -9 -5 0 -17
19 -12 19 -19 26 -16 15 6 -19 5 -19 -8 -1 -8 10 -26 19 -40 20 -14 0 -26 4
-26 9 0 4 -5 7 -11 7 -5 0 -7 -4 -4 -10 3 -5 1 -10 -5 -10 -7 0 -9 8 -5 20 3
11 3 20 -2 21 -102 11 -118 16 -118 42 0 15 -35 16 -54 2 -11 -7 -13 -7 -7 3
9 15 5 15 -31 2 -26 -9 -26 -9 -9 5 17 13 15 14 -19 8 -28 -4 -36 -3 -31 5 4
7 13 12 21 12 8 0 17 4 20 10 4 7 -3 7 -20 0 -33 -13 -38 -13 -30 0 3 6 -1 7
-9 4 -9 -3 -14 -10 -11 -14 3 -5 1 -12 -5 -15 -6 -4 -9 -1 -8 6 2 7 -2 13 -9
14 -6 0 -15 4 -20 9 -5 5 -2 6 6 1 10 -5 12 -4 7 3 -5 9 -13 9 -26 2 -24 -13
-30 -13 -30 1 0 5 5 7 10 4 6 -3 10 -2 10 3 0 5 -15 9 -34 8 -19 0 -32 -4 -29
-8 2 -5 0 -8 -4 -8 -5 0 -15 12 -24 26 -14 22 -17 24 -22 10 -5 -11 -3 -15 5
-10 7 5 8 3 3 -6 -6 -9 -4 -11 6 -5 12 7 12 5 1 -6 -9 -10 -15 -10 -20 -3 -9
14 -43 14 -61 0 -11 -8 -13 -8 -8 1 4 6 3 14 -2 18 -5 3 -14 -3 -20 -12 -6
-10 -11 -13 -11 -7 0 6 7 18 17 25 13 11 17 11 20 1 5 -13 23 -7 23 7 0 12
-54 8 -62 -4 -5 -6 -8 -6 -8 2 0 7 -11 12 -25 11 -18 -2 -24 -7 -20 -18 4 -11
2 -11 -8 2 -16 20 -54 20 -62 0 -3 -7 -9 -11 -14 -8 -5 4 -16 -1 -25 -9 -13
-14 -15 -13 -13 5 1 15 7 19 24 15 13 -2 23 0 23 4 0 4 -18 8 -40 8 -35 0 -38
-2 -22 -14z m172 -3 c0 -5 -5 -10 -11 -10 -5 0 -7 5 -4 10 3 6 8 10 11 10 2 0
4 -4 4 -10z m-200 -24 c-7 -7 -13 -7 -20 0 -6 6 -3 10 10 10 13 0 16 -4 10
-10z m-173 -31 c4 -4 3 -5 -4 -2 -6 4 -13 2 -15 -5 -3 -8 -6 -6 -10 4 -7 17
15 19 29 3z m206 -128 c9 5 9 3 0 -8 -8 -10 -9 -19 -1 -29 8 -12 9 -11 4 4 -5
14 -2 17 9 12 9 -3 14 -2 11 3 -3 5 1 12 10 15 10 4 13 2 9 -7 -4 -6 1 -3 9 7
10 13 16 15 16 7 0 -11 3 -11 17 0 14 12 16 12 11 -1 -3 -8 -13 -14 -23 -13
-11 1 -14 -2 -8 -8 11 -11 43 -1 43 13 0 5 6 6 12 2 7 -5 38 -7 70 -6 32 1 58
-2 58 -6 0 -5 7 -9 15 -9 11 0 12 4 3 14 -8 11 -7 12 6 7 9 -3 16 -14 16 -23
0 -10 3 -12 8 -5 4 6 16 9 27 7 11 -3 32 -6 48 -7 15 -2 30 -6 35 -11 4 -5 2
-5 -5 -1 -6 3 -14 2 -17 -3 -4 -5 1 -8 10 -7 8 1 20 9 25 17 5 8 9 9 9 4 0 -6
9 -16 21 -23 12 -8 18 -9 14 -3 -9 15 8 14 24 -1 11 -10 13 -10 7 0 -12 20 5
14 25 -10 11 -11 19 -17 19 -12 0 6 -5 15 -12 22 -9 9 -9 12 0 12 7 0 12 -5
12 -10 0 -7 6 -7 18 -1 14 7 18 6 18 -9 0 -14 -3 -16 -13 -8 -7 6 -13 6 -13 2
0 -17 38 -35 46 -22 5 7 3 8 -6 3 -9 -5 -11 -4 -6 3 5 8 13 9 25 2 10 -5 22
-6 26 -2 5 4 5 1 1 -6 -4 -7 -12 -9 -18 -6 -7 4 -8 2 -4 -4 5 -9 13 -9 27 -2
10 6 19 7 19 3 0 -4 4 -2 9 5 7 11 9 11 14 -2 3 -8 1 -18 -5 -22 -6 -4 -8 -3
-5 3 3 5 0 10 -8 10 -13 0 -12 -4 2 -19 9 -10 18 -16 21 -13 3 3 12 -1 20 -8
13 -11 14 -9 2 13 -12 23 -12 24 3 12 9 -8 22 -10 29 -6 9 6 9 3 -1 -9 -8 -10
-11 -20 -7 -24 3 -3 6 -2 6 3 0 13 48 10 61 -3 6 -6 5 -10 -5 -10 -8 0 -12 5
-9 10 4 6 1 7 -6 2 -19 -11 0 -23 43 -28 41 -4 58 -25 49 -57 -2 -8 3 -3 12
13 8 15 17 27 20 27 9 0 0 -40 -10 -40 -5 0 -2 -5 7 -11 10 -5 20 -8 22 -7 3
2 11 -6 19 -16 11 -15 16 -16 22 -6 5 9 4 11 -3 6 -7 -4 -12 -5 -12 -2 0 2 -3
13 -7 23 -7 17 -6 17 11 1 9 -10 27 -25 39 -34 16 -12 18 -17 9 -21 -10 -4 -5
-11 13 -23 16 -10 34 -16 41 -13 17 6 18 -9 2 -26 -10 -11 -10 -13 0 -7 6 4
12 2 12 -4 0 -7 8 -9 21 -5 16 5 20 3 17 -12 -2 -11 3 -18 14 -18 19 0 33 -12
33 -28 0 -5 6 -12 13 -15 8 -2 10 3 6 15 -5 14 -4 15 4 4 6 -8 8 -19 6 -25 -3
-7 3 -20 12 -31 8 -11 13 -15 10 -8 -4 6 -1 15 5 19 8 4 9 3 5 -4 -4 -7 -1
-12 6 -13 10 0 10 -2 1 -6 -7 -2 -13 -9 -13 -14 0 -6 5 -7 12 -3 6 4 8 3 5 -4
-4 -5 -15 -9 -25 -8 -9 2 -20 -2 -24 -8 -5 -8 -8 -7 -8 2 0 8 -5 10 -12 6 -7
-5 -9 -2 -5 8 4 12 1 14 -14 11 -11 -3 -19 0 -19 6 0 7 4 10 9 6 5 -3 12 -1
15 4 10 15 -25 6 -35 -10 -7 -10 -8 -6 -5 13 3 20 1 25 -9 22 -8 -3 -13 -11
-11 -17 1 -7 1 -9 -1 -4 -3 4 -9 5 -13 2 -5 -3 -11 -1 -15 5 -3 5 -1 10 5 10
6 0 8 5 5 11 -5 6 -12 4 -21 -8 -13 -17 -13 -17 -14 4 0 16 -6 21 -22 21 -13
-1 -28 -5 -35 -10 -7 -6 -15 -3 -20 7 -5 9 -16 17 -24 18 -8 2 -21 7 -29 12
-13 7 -13 6 -2 -7 9 -11 10 -18 2 -23 -5 -3 -10 -1 -10 5 0 6 -4 9 -9 5 -5 -3
-13 0 -17 6 -5 8 -3 9 6 4 9 -5 11 -4 6 3 -10 17 -26 15 -26 -3 0 -12 -5 -13
-17 -7 -10 5 -24 7 -30 5 -7 -3 -13 0 -13 7 0 6 5 8 12 4 7 -5 8 -3 3 6 -6 10
-11 9 -22 -5 -9 -13 -13 -14 -13 -5 0 9 -5 7 -15 -6 -11 -14 -14 -15 -9 -3 6
20 -11 34 -22 18 -4 -8 -3 -9 4 -5 18 11 14 0 -5 -15 -11 -10 -14 -10 -9 -1 4
7 2 12 -4 12 -6 0 -8 5 -5 10 3 6 1 10 -4 10 -6 0 -11 -7 -11 -15 0 -8 -4 -15
-10 -15 -5 0 -10 7 -10 15 0 8 -4 15 -10 15 -5 0 -7 -8 -3 -17 3 -10 3 -15 -2
-11 -4 4 -13 3 -20 -2 -8 -7 -12 -5 -12 5 0 8 4 12 9 9 4 -3 5 2 1 11 -5 13
-7 14 -14 3 -5 -7 -9 -9 -9 -5 0 4 -10 2 -22 -5 -26 -14 -60 -19 -53 -8 3 4
-2 10 -10 13 -9 4 -12 1 -9 -7 3 -8 1 -17 -5 -21 -6 -3 -15 4 -20 17 -7 17
-10 19 -10 6 -1 -10 -7 -19 -13 -19 -32 -4 -73 2 -79 12 -4 7 -9 4 -12 -6 -4
-9 -3 -13 2 -10 5 3 12 2 15 -3 2 -4 -6 -8 -20 -8 -16 0 -23 5 -20 13 3 7 1
15 -5 18 -5 4 -9 3 -8 -2 4 -20 -2 -24 -18 -12 -10 7 -7 1 6 -14 14 -15 19
-27 13 -27 -7 0 -12 4 -12 8 0 5 -11 14 -25 20 -35 16 -43 15 -19 -3 12 -9 14
-14 6 -15 -7 0 -11 -4 -8 -9 4 -5 -2 -8 -11 -6 -10 1 -26 -2 -35 -7 -13 -6
-16 -5 -12 6 3 8 14 13 25 11 10 -2 19 0 19 6 0 15 -42 4 -56 -16 -8 -10 -14
-14 -14 -8 0 17 -31 9 -42 -10 -5 -9 -14 -17 -21 -17 -7 0 -6 4 3 10 8 5 11
10 5 10 -16 -1 -45 -26 -38 -33 3 -4 1 -7 -5 -7 -7 0 -12 4 -12 8 0 5 -7 9
-15 9 -12 0 -12 -3 -2 -16 10 -12 9 -13 -2 -6 -15 9 -75 15 -66 7 2 -3 -3 -10
-11 -17 -15 -11 -15 -12 0 -12 9 0 16 5 16 10 0 6 3 7 6 4 9 -9 -16 -38 -27
-31 -5 3 -18 0 -30 -7 -17 -9 -23 -8 -30 2 -7 11 -9 11 -9 1 0 -8 -5 -10 -12
-6 -7 4 -4 -3 7 -16 11 -13 15 -20 8 -17 -6 4 -14 3 -18 -3 -8 -13 -25 -3 -21
13 1 7 1 9 -1 4 -3 -4 -9 -5 -13 -2 -5 3 -7 -2 -6 -12 3 -13 -3 -18 -22 -20
-25 -1 -26 0 -7 13 10 8 15 14 10 14 -12 0 -55 -41 -55 -52 0 -5 6 -6 13 -2 6
4 9 3 4 -1 -4 -5 -24 -9 -45 -9 -23 -1 -36 -6 -35 -13 2 -7 -6 -17 -17 -23
-11 -6 -18 -16 -14 -21 4 -7 -2 -6 -16 1 -12 6 -24 9 -28 6 -3 -3 0 -6 6 -6 7
0 12 -5 12 -11 0 -5 -4 -7 -10 -4 -5 3 -10 1 -10 -5 0 -6 -5 -8 -12 -4 -9 5
-8 2 1 -9 12 -15 12 -17 -4 -11 -14 6 -16 4 -10 -7 8 -12 6 -12 -9 0 -13 11
-19 12 -25 3 -5 -8 -15 -10 -27 -6 -15 6 -14 3 5 -13 19 -15 21 -22 11 -28 -9
-5 -11 -4 -6 3 4 7 1 12 -9 12 -9 0 -13 -4 -10 -10 3 -5 2 -10 -4 -10 -5 0
-11 3 -14 8 -2 4 -2 1 -1 -5 2 -7 -1 -13 -6 -13 -5 0 -7 -8 -3 -17 5 -15 3
-15 -11 2 -10 11 -15 14 -11 8 3 -7 2 -13 -2 -13 -5 0 -15 6 -23 13 -12 10
-12 9 -2 -4 10 -14 10 -18 -4 -23 -14 -5 -14 -9 -3 -23 10 -12 10 -14 2 -9 -7
4 -13 2 -13 -3 0 -6 -4 -11 -10 -11 -5 0 -7 8 -3 18 3 9 -5 4 -18 -13 -13 -16
-23 -34 -21 -39 2 -4 -5 -6 -14 -2 -14 5 -15 4 -4 -9 7 -8 17 -12 23 -8 6 3 7
1 3 -5 -5 -9 -15 -7 -34 6 -14 9 -23 12 -19 6 8 -14 -16 -37 -27 -26 -4 4 -6
0 -4 -8 2 -9 -3 -14 -12 -12 -8 2 -12 0 -7 -4 4 -4 -3 -19 -15 -32 -13 -14
-18 -22 -12 -19 7 4 14 0 17 -8 5 -11 1 -12 -18 -5 -16 6 -27 6 -31 -2 -4 -7
-3 -8 4 -4 8 5 12 0 12 -13 0 -12 -5 -21 -11 -21 -5 0 -7 4 -4 10 3 6 -1 7
-10 4 -14 -6 -14 -8 2 -20 14 -10 14 -12 3 -11 -8 2 -20 5 -25 9 -6 4 -11 -2
-11 -12 0 -12 6 -17 19 -14 11 2 17 0 13 -3 -6 -7 -24 -11 -58 -15 -9 -1 -15
-4 -13 -7 3 -2 -1 -11 -7 -20 -7 -9 -2 -7 11 4 l24 20 -11 -21 c-6 -12 -9 -24
-6 -27 3 -3 0 -8 -7 -13 -8 -4 -10 -3 -5 4 4 7 2 12 -5 12 -6 0 -9 -8 -6 -19
3 -14 1 -18 -9 -14 -8 3 -11 10 -7 16 4 6 1 7 -6 3 -9 -6 -8 -13 6 -28 18 -21
18 -21 -7 -8 -24 13 -24 12 -10 -5 9 -11 10 -16 3 -11 -19 11 -36 -3 -23 -19
13 -16 -3 -30 -22 -19 -7 4 -10 4 -6 -1 4 -4 2 -15 -5 -23 -10 -13 -8 -14 13
-8 14 3 6 -3 -18 -15 -23 -12 -40 -24 -38 -27 3 -3 12 1 20 7 12 10 15 9 13
-7 -1 -14 -8 -18 -25 -16 -19 2 -21 0 -11 -12 6 -7 16 -11 22 -7 6 3 7 1 3 -5
-5 -9 -13 -9 -27 -2 -13 7 -19 7 -19 0 0 -5 5 -10 10 -10 6 0 10 -5 10 -11 0
-5 -5 -7 -11 -4 -7 5 -9 -3 -6 -24 4 -21 2 -29 -6 -24 -6 4 -8 0 -4 -10 3 -9
1 -19 -6 -23 -7 -4 -9 -4 -5 1 4 4 1 20 -8 36 -8 16 -14 31 -14 34 1 21 -1 26
-8 21 -10 -6 -9 50 0 60 4 3 5 -5 4 -18 -2 -15 2 -25 10 -25 7 0 11 4 8 9 -3
5 -8 24 -11 41 -3 18 -6 37 -6 42 -1 6 -6 13 -12 18 -5 4 6 5 25 2 35 -5 35
-5 10 10 -14 8 -19 14 -12 15 6 0 12 7 12 15 0 8 5 15 12 15 6 0 3 7 -8 16
-19 15 -18 15 3 11 13 -3 26 0 30 5 3 7 1 8 -6 4 -6 -4 -14 0 -17 9 -6 13 -8
14 -15 3 -6 -9 -9 -9 -9 -1 0 6 5 15 10 18 6 4 7 11 4 17 -4 7 -2 8 5 4 6 -4
9 -11 6 -16 -3 -5 -2 -11 2 -13 5 -3 9 7 9 23 1 22 -2 27 -15 22 -14 -5 -14
-4 1 12 10 9 23 14 30 10 7 -4 3 3 -9 15 -24 23 -32 41 -10 23 10 -8 13 -6 13
8 0 10 -3 17 -6 15 -3 -2 -6 5 -7 15 -1 11 2 22 7 25 4 3 6 15 2 27 -3 14 -1
19 6 14 6 -3 14 -1 18 5 5 8 3 9 -6 4 -8 -5 -11 -3 -8 6 3 8 1 22 -3 31 -7 12
-4 20 8 27 10 6 14 11 9 11 -5 0 -1 10 10 22 16 18 17 21 2 15 -12 -4 -15 -2
-12 8 3 8 13 11 22 8 13 -4 12 -2 -3 11 -11 10 -14 14 -6 10 9 -5 12 -3 7 4
-8 13 -56 12 -56 -1 0 -5 7 -7 15 -3 8 3 15 2 15 -2 0 -14 -17 -33 -31 -35 -8
-2 -20 -7 -28 -11 -10 -6 -12 -5 -7 2 4 7 5 12 2 12 -3 0 -10 -10 -17 -21 -8
-15 -8 -19 0 -15 6 4 11 3 11 -2 0 -5 -11 -14 -24 -21 -18 -10 -22 -20 -20
-42 2 -16 -1 -29 -7 -29 -6 0 -8 4 -4 9 3 5 1 12 -4 16 -10 6 -7 -27 4 -45 11
-18 -4 -11 -26 13 -12 12 -19 16 -15 10 13 -23 15 -53 4 -59 -6 -4 -8 -3 -5 2
3 6 1 16 -4 24 -7 11 -8 9 -6 -8 2 -13 9 -27 16 -31 10 -6 9 -10 -3 -14 -9 -4
-13 -14 -11 -27 2 -11 0 -18 -6 -15 -5 4 -18 0 -30 -8 l-21 -15 21 -7 c18 -5
19 -8 7 -20 -7 -8 -12 -25 -11 -39 3 -27 -9 -43 -19 -27 -4 5 -2 12 4 16 14 9
12 27 -2 23 -15 -5 -18 -26 -6 -51 7 -13 4 -19 -14 -27 -13 -5 -18 -9 -11 -9
12 -1 12 -26 -1 -38 -4 -4 -7 -3 -6 2 4 19 0 26 -11 20 -7 -5 -2 -16 13 -33
13 -14 19 -23 13 -20 -5 3 -16 0 -23 -8 -10 -11 -10 -14 0 -14 7 -1 2 -7 -11
-14 -15 -8 -20 -16 -12 -20 6 -4 11 -2 11 3 0 6 4 11 9 11 18 0 4 -34 -20 -49
-13 -8 -21 -11 -17 -7 4 5 0 15 -10 23 -15 13 -15 13 5 4 30 -15 38 -14 23 4
-7 8 -20 15 -29 16 -11 0 -9 3 7 9 26 11 30 23 5 13 -16 -6 -16 -5 -4 10 11
13 11 17 1 17 -8 0 -11 3 -7 6 3 3 2 17 -3 30 -7 16 -6 23 2 21 6 -1 13 4 16
12 3 10 0 11 -9 5 -12 -7 -12 -5 0 9 12 16 8 22 -12 18 -5 -1 -5 3 -2 9 4 6
13 9 21 6 8 -3 11 0 7 9 -3 8 -8 13 -12 11 -6 -4 -6 40 -1 54 1 3 2 9 1 14 -1
5 5 6 13 3 8 -3 17 0 20 8 3 8 0 12 -7 9 -8 -3 -13 7 -13 27 -1 20 1 27 6 18
5 -7 7 -16 5 -19 -2 -3 5 -6 16 -6 18 0 19 2 4 12 -21 15 -21 23 1 38 9 7 14
18 10 24 -3 5 0 13 6 16 8 3 7 5 -2 3 -9 -1 -17 3 -18 8 -1 6 2 10 7 10 5 0
13 3 17 8 4 4 3 7 -3 7 -5 0 -10 7 -10 15 0 13 4 12 20 -2 11 -10 17 -13 14
-6 -4 6 -4 13 0 16 5 2 2 2 -4 1 -7 -2 -13 1 -13 6 0 6 6 10 13 10 8 0 7 3 -3
9 -8 6 -19 7 -25 4 -5 -4 -7 -2 -2 2 11 12 47 14 47 2 0 -6 3 -8 6 -4 3 3 1
14 -5 24 -7 12 -10 14 -11 4 0 -8 -3 -11 -7 -8 -3 4 2 17 13 29 10 12 14 19 8
15 -6 -3 -11 0 -11 7 0 8 9 12 21 10 12 -3 15 -2 9 2 -7 3 -13 10 -13 15 0 6
4 8 9 5 5 -3 15 2 22 11 11 13 11 17 2 20 -7 3 -13 9 -13 14 0 4 6 6 13 3 8
-3 20 3 28 13 13 16 12 17 -2 5 -23 -17 -33 8 -14 36 8 10 12 21 10 24 -2 2 4
4 15 5 13 1 17 -3 13 -15 -4 -14 -3 -14 5 -3 13 18 4 43 -12 34 -6 -4 -5 1 3
10 7 9 20 17 27 17 8 0 14 5 14 11 0 5 -5 7 -12 3 -7 -5 -8 -3 -4 5 5 7 15 10
25 6 13 -5 14 -4 4 6 -7 7 -13 17 -13 23 0 6 5 5 12 -2 15 -15 28 -15 28 -1 0
5 -4 8 -9 5 -5 -3 -12 1 -15 10 -3 8 -2 12 4 9 6 -3 10 1 10 10 0 11 5 15 14
12 20 -8 33 32 15 45 -9 5 -4 6 15 2 23 -5 27 -4 21 6 -6 9 -4 12 6 8 10 -4
15 1 16 13 1 11 -2 17 -8 14 -5 -4 -9 -2 -9 4 0 6 11 13 25 17 14 3 25 10 25
15 0 5 -8 6 -17 2 -10 -3 -3 6 16 21 41 31 42 31 35 9 -5 -17 -5 -17 6 0 6 9
9 21 6 26 -8 12 19 33 29 23 5 -4 5 1 2 10 -3 10 -1 20 5 24 6 4 8 3 4 -4 -3
-6 -2 -13 4 -17 5 -3 10 -1 10 5 0 6 4 9 9 6 14 -9 20 31 7 45 -6 7 0 5 14 -4
29 -20 52 -23 26 -4 -16 12 -16 13 4 14 28 2 52 23 46 39 -3 8 0 11 9 7 8 -3
12 -10 8 -16 -3 -6 -1 -7 6 -3 9 6 9 11 0 22 -10 12 -9 13 4 9 8 -4 18 -1 23
6 5 8 3 10 -7 4 -11 -6 -11 -5 -3 4 6 7 18 13 27 15 8 1 23 8 33 16 18 14 18
13 0 -7 -10 -13 -23 -20 -27 -17 -5 3 -9 1 -9 -5 0 -5 9 -9 20 -8 10 1 17 3
15 6 -8 8 17 31 27 25 6 -4 5 3 -1 15 -10 17 -9 20 4 15 8 -4 15 -11 15 -17 0
-6 7 -1 16 11 9 13 20 19 27 15 7 -4 6 1 -2 10 -12 15 -12 17 4 11 12 -5 16
-4 12 3 -5 7 0 9 12 6 10 -3 22 0 25 6 4 6 12 11 18 11 6 0 5 -7 -3 -17 -12
-15 -12 -16 1 -8 8 6 18 10 22 10 3 0 10 4 15 9 5 5 3 6 -4 2 -9 -5 -13 0 -13
14 0 20 1 20 16 5 12 -12 19 -13 30 -4 17 14 18 23 2 13 -10 -5 -10 -3 0 7 9
9 15 10 20 3 7 -10 51 -14 50 -4 -1 21 17 48 32 47 10 -1 17 -4 14 -8 -2 -4 1
-11 7 -15 7 -4 9 -3 6 2 -3 6 -2 16 4 24 5 8 9 10 9 4 0 -6 16 -11 35 -11 19
0 32 4 29 8 -2 4 0 10 6 14 5 3 10 1 10 -4 0 -16 49 -9 55 7 3 8 12 12 19 9 8
-3 17 -2 20 4 2 5 3 4 2 -3 -2 -7 -10 -12 -20 -10 -10 2 -16 -4 -15 -15 0 -11
3 -13 6 -5 4 10 8 10 21 0 10 -8 13 -9 9 -1 -10 17 13 28 24 12 5 -8 9 -9 9
-3 0 5 -6 16 -12 23 -11 10 -10 11 5 5 12 -4 16 -2 14 7 -2 8 -2 11 0 6 3 -4
10 -4 16 0z m842 -5 c-3 -3 -11 0 -18 7 -9 10 -8 11 6 5 10 -3 15 -9 12 -12z
m-1155 -76 c0 -2 -7 -7 -16 -10 -8 -3 -12 -2 -9 4 6 10 25 14 25 6z m-76 -22
c3 -8 2 -12 -4 -9 -6 3 -10 10 -10 16 0 14 7 11 14 -7z m-153 -71 c-12 -20
-14 -14 -5 12 4 9 9 14 11 11 3 -2 0 -13 -6 -23z m1469 -79 c0 -8 -5 -12 -10
-9 -6 4 -8 11 -5 16 9 14 15 11 15 -7z m-1860 -5 c0 -5 -4 -8 -9 -4 -6 3 -14
-3 -20 -12 -6 -10 -11 -13 -11 -7 0 12 20 34 32 34 4 0 8 -5 8 -11z m225 -30
c-4 -5 -12 -9 -18 -8 -9 0 -8 2 1 6 6 2 9 10 6 15 -4 7 -2 8 5 4 6 -4 9 -12 6
-17z m1732 -28 c0 -11 -5 -18 -9 -15 -4 3 -5 11 -1 19 7 21 12 19 10 -4z m63
-61 c0 -5 -2 -10 -4 -10 -3 0 -8 5 -11 10 -3 6 -1 10 4 10 6 0 11 -4 11 -10z
m-2161 -34 c-2 -2 -15 -9 -29 -15 -24 -11 -24 -11 -6 3 16 13 49 24 35 12z
m2006 -45 c3 -5 2 -12 -3 -15 -5 -3 -9 1 -9 9 0 17 3 19 12 6z m80 -20 c-9 -8
-36 -10 -30 -2 2 4 11 8 20 8 8 0 13 -3 10 -6z m-830 -30 c3 -5 2 -12 -3 -15
-5 -3 -9 1 -9 9 0 17 3 19 12 6z m424 -92 c6 10 10 9 14 -3 9 -22 28 -20 21 2
-4 12 -3 13 3 4 6 -7 16 -12 24 -10 8 2 13 -3 11 -12 -3 -10 3 -9 19 5 12 11
19 14 14 6 -6 -11 -4 -13 9 -8 14 5 17 3 13 -8 -4 -8 -1 -17 5 -21 7 -4 8 -3
4 4 -5 8 2 12 19 12 17 0 24 -4 19 -12 -4 -7 -3 -8 4 -4 6 4 9 13 5 21 -3 8 0
15 7 15 6 0 9 -4 6 -8 -2 -4 -1 -14 4 -21 6 -10 10 -8 15 8 l7 22 32 -25 c22
-17 37 -22 47 -15 20 12 29 11 25 -3 -1 -7 -1 -10 1 -5 3 4 11 7 19 7 9 0 12
-5 9 -10 -4 -6 -3 -10 2 -9 4 1 11 0 16 -1 4 -1 13 -3 20 -4 6 -1 11 -10 9
-21 -3 -20 -3 -20 11 -1 14 19 47 31 46 18 -3 -20 3 -28 24 -29 21 -2 21 -1 3
13 -11 8 -15 14 -10 14 5 0 25 -14 44 -31 19 -17 29 -28 23 -24 -7 3 -13 1
-13 -4 0 -15 13 -14 29 2 10 10 12 8 9 -8 -3 -21 18 -28 40 -12 15 12 16 2 1
-24 -10 -20 -10 -20 14 -4 17 11 27 13 32 5 3 -6 11 -8 16 -5 5 3 6 -2 2 -11
-4 -11 -2 -15 4 -11 6 4 16 0 23 -8 7 -8 16 -13 19 -10 4 2 8 -3 8 -11 0 -11
-6 -9 -23 7 -14 13 -24 17 -29 10 -4 -7 -1 -10 7 -9 7 2 12 -3 10 -10 -1 -8 2
-11 7 -8 5 4 13 2 16 -4 4 -6 15 -8 25 -5 10 3 20 0 23 -9 4 -10 1 -13 -9 -9
-7 3 -14 -1 -14 -8 0 -7 3 -9 6 -6 4 3 15 2 25 -4 14 -7 19 -6 19 3 0 10 3 9
9 -1 5 -8 7 -21 3 -29 -4 -11 -1 -14 12 -9 10 4 15 3 11 -3 -3 -5 -1 -18 5
-27 11 -16 11 -16 6 -1 -3 10 0 20 6 24 7 4 8 3 4 -4 -4 -7 -2 -12 5 -12 7 0
9 -3 6 -6 -3 -4 -2 -15 3 -25 7 -12 7 -20 0 -24 -13 -8 -13 -25 0 -25 5 0 18
-7 29 -16 15 -13 17 -23 11 -45 -5 -18 -5 -27 1 -24 5 4 9 0 9 -9 0 -8 6 -17
13 -19 7 -4 6 -6 -5 -6 -9 -1 -19 5 -21 12 -4 9 -6 9 -6 0 -1 -7 7 -17 18 -22
12 -7 17 -19 15 -36 -1 -16 3 -28 12 -32 18 -7 18 -19 0 -26 -10 -4 -13 -1
-10 7 7 18 -12 30 -22 15 -4 -8 -3 -9 4 -5 16 10 15 -7 0 -23 -10 -11 -10 -13
0 -7 7 4 12 1 12 -7 0 -8 10 -19 23 -26 20 -11 20 -11 -8 -6 -22 4 -26 3 -15
-4 11 -8 12 -13 3 -22 -7 -7 -9 -19 -3 -34 5 -13 5 -26 -1 -32 -6 -6 -4 -10 6
-10 8 0 13 3 10 5 -3 3 0 11 6 19 8 9 8 13 0 13 -12 0 -10 35 4 47 4 5 5 3 1
-4 -3 -6 -2 -14 2 -17 12 -7 9 -50 -4 -67 -16 -22 -11 -44 11 -42 17 1 18 0 5
-10 -20 -16 -23 -60 -4 -53 8 3 14 1 14 -4 0 -6 -7 -10 -16 -10 -8 0 -12 -5
-9 -10 4 -6 11 -7 17 -4 7 4 8 2 4 -5 -4 -6 -12 -9 -17 -6 -5 4 -9 1 -9 -4 0
-6 4 -11 8 -11 5 0 9 -7 9 -15 0 -8 -4 -12 -9 -9 -4 3 -8 -2 -8 -11 0 -10 5
-13 13 -9 6 4 8 3 4 -1 -4 -5 -14 -10 -23 -11 -11 -2 -13 3 -8 19 6 18 4 20
-7 10 -10 -8 -19 -9 -29 -1 -12 8 -12 9 2 4 10 -3 20 -1 23 5 4 5 11 6 17 3 7
-4 8 -2 4 4 -4 6 -13 9 -20 6 -8 -3 -17 0 -21 5 -3 6 -10 9 -15 6 -4 -3 -6 4
-3 15 3 13 0 20 -8 20 -11 0 -11 2 1 10 10 6 11 10 3 10 -7 0 -13 7 -13 16 0
8 4 13 8 10 5 -3 9 1 9 8 0 8 -8 11 -21 8 -19 -4 -20 -3 -4 9 12 10 15 19 9
28 -7 11 -13 12 -23 3 -11 -9 -14 -7 -15 10 -1 12 -6 24 -11 27 -5 3 -8 19 -8
34 1 16 -3 31 -8 34 -5 3 -6 1 -2 -5 3 -6 1 -14 -5 -18 -7 -4 -9 -3 -5 4 3 6
2 13 -3 17 -6 3 -7 13 -4 22 4 11 3 14 -5 9 -7 -4 -12 -2 -12 3 0 6 6 11 13
11 8 0 7 3 -3 9 -8 6 -19 7 -25 3 -5 -3 -4 1 2 9 10 13 9 20 -8 38 -11 12 -25
18 -31 15 -7 -4 -8 -2 -4 5 4 6 11 9 15 7 4 -3 8 1 8 9 0 11 -5 12 -20 4 -10
-6 -21 -8 -25 -5 -3 3 0 6 7 6 7 0 9 5 5 12 -4 6 -3 8 4 4 6 -3 13 -3 16 2 3
5 0 9 -7 9 -48 4 -65 8 -59 18 4 5 7 17 6 25 -1 8 -2 22 -3 30 -1 13 -3 13
-10 0 -6 -8 -8 -17 -5 -21 2 -4 -3 -12 -11 -19 -8 -7 -12 -17 -8 -23 4 -7 0
-8 -12 -3 -13 5 -15 3 -8 -6 6 -7 9 -21 7 -31 -1 -11 0 -16 3 -13 10 10 32
-21 28 -40 -2 -10 -4 -23 -4 -27 -1 -5 -6 -5 -12 -1 -8 5 -8 1 0 -14 16 -30
14 -36 -6 -21 -16 13 -17 12 -4 -3 11 -15 11 -21 1 -34 -8 -8 -9 -14 -4 -12 5
2 20 -5 34 -15 22 -15 23 -17 5 -18 -20 0 -20 -1 0 -8 11 -5 25 -6 30 -3 6 3
4 -2 -4 -11 -10 -13 -11 -20 -2 -31 8 -10 9 -16 1 -21 -6 -3 -7 -11 -4 -17 5
-7 2 -8 -6 -3 -8 5 -11 3 -8 -6 3 -8 12 -13 19 -11 11 2 11 -1 -1 -10 -19 -16
-24 -39 -7 -32 7 2 13 -4 14 -16 1 -11 -3 -20 -8 -20 -6 0 -7 5 -4 10 3 6 1
10 -4 10 -14 0 -13 -10 4 -40 10 -19 11 -28 2 -39 -9 -12 -9 -13 1 -7 6 4 12
4 13 -1 6 -59 5 -62 -11 -48 -9 8 -21 15 -26 15 -5 0 -1 -5 9 -11 9 -5 17 -15
17 -20 0 -6 -4 -7 -10 -4 -6 3 -7 -1 -3 -10 4 -12 8 -13 13 -5 14 23 17 -15 2
-40 -12 -22 -13 -23 -9 -3 3 13 -1 24 -9 27 -7 3 -11 0 -8 -7 2 -7 -2 -21 -11
-32 -14 -19 -15 -19 -8 -1 5 14 3 17 -7 11 -8 -5 -11 -4 -6 3 3 6 2 14 -4 17
-8 5 -7 12 2 23 11 14 10 15 -6 8 -20 -7 -20 -7 -1 14 19 21 19 21 -9 11 -15
-6 -25 -7 -21 -2 3 5 1 12 -5 16 -6 4 -7 12 -3 18 9 14 14 41 6 33 -7 -7 -33
19 -33 34 0 6 -5 8 -10 5 -6 -4 -7 -12 -3 -18 4 -7 0 -6 -10 2 -18 14 -23 26
-8 17 10 -7 23 19 14 28 -4 3 -11 6 -17 6 -6 0 -4 -5 4 -10 8 -5 10 -10 4 -10
-6 0 -17 7 -24 15 -7 8 -16 12 -21 9 -16 -9 -10 3 8 17 15 12 16 12 8 -1 -8
-13 -7 -13 8 -1 9 7 17 16 17 19 0 3 -3 2 -7 -1 -3 -4 -13 -1 -21 6 -13 10
-14 9 -7 -3 6 -12 6 -13 -6 -2 -12 11 -12 14 1 22 10 6 11 10 3 10 -7 0 -10 7
-7 18 4 12 3 13 -3 4 -7 -9 -14 -8 -30 8 -12 11 -23 15 -25 11 -2 -5 -10 -2
-18 7 -13 14 -12 15 2 9 12 -4 16 -1 15 13 -1 15 -5 16 -19 9 -10 -5 -18 -7
-18 -4 0 3 0 8 0 13 0 4 4 7 9 7 5 0 12 3 16 7 4 3 -5 5 -19 4 -15 -2 -29 1
-33 7 -3 6 -1 7 5 3 7 -4 12 -2 12 3 0 10 -14 15 -33 12 -4 -1 -3 7 2 18 12
22 5 32 -17 23 -15 -5 -16 -4 -2 13 14 17 14 18 -6 7 -19 -10 -23 -9 -27 8 -3
11 -11 19 -19 17 -7 -2 -10 -2 -5 0 4 3 4 10 0 16 -3 7 3 3 15 -7 12 -11 25
-16 28 -13 4 4 -1 9 -10 13 -9 3 -14 10 -11 14 3 5 -5 7 -18 6 -19 -2 -23 1
-21 26 1 15 -2 25 -7 22 -8 -5 -13 10 -10 29 1 5 -3 5 -9 2 -8 -5 -6 -15 5
-32 13 -19 14 -28 5 -37 -8 -8 -9 -6 -4 8 6 15 4 17 -6 11 -8 -5 -11 -4 -6 3
8 14 -22 44 -36 36 -6 -4 -8 -2 -5 3 4 6 0 14 -8 17 -8 3 -15 9 -14 13 4 26
-3 43 -18 43 -16 0 -16 -2 -3 -11 12 -8 12 -10 1 -7 -8 2 -15 15 -16 28 -1 13
-7 26 -14 28 -6 2 -9 8 -6 13 4 5 -1 6 -9 3 -13 -5 -12 -9 6 -23 16 -14 18
-20 8 -26 -8 -5 -11 -4 -6 3 3 5 -10 20 -29 32 -39 24 -40 26 -23 36 7 5 8 3
3 -6 -6 -10 -4 -12 9 -7 11 5 15 3 10 -5 -5 -7 -3 -8 6 -3 22 14 -18 37 -42
24 -14 -7 -18 -7 -16 3 2 7 -3 12 -9 10 -7 -1 -12 4 -10 10 1 7 -4 12 -11 10
-10 -2 -10 2 -1 20 11 21 11 22 -5 9 -14 -12 -16 -12 -10 3 4 11 1 16 -11 16
-9 0 -13 -4 -10 -10 3 -5 1 -10 -4 -10 -14 0 -14 6 0 32 6 12 7 18 1 14 -5 -3
-12 1 -16 9 -3 8 -12 12 -21 9 -14 -6 -20 6 -16 29 1 5 -3 6 -9 2 -5 -3 -13 1
-16 10 -5 13 -9 14 -15 4 -11 -18 -39 -20 -32 -3 3 9 0 14 -8 12 -8 -2 -13 3
-12 10 2 6 -4 12 -12 12 -8 0 -14 5 -12 11 1 6 -4 13 -11 15 -7 1 -8 0 -2 -3
5 -2 8 -9 5 -14 -4 -5 -12 -3 -19 4 -8 6 -11 16 -9 21 3 5 0 7 -8 4 -18 -6
-38 13 -32 32 4 13 3 13 -5 1 -13 -18 -42 -24 -39 -8 1 6 -5 11 -13 12 -22 0
-20 44 2 60 22 15 52 9 41 -8 -4 -6 -1 -7 6 -3 9 6 8 13 -6 29 -12 14 -13 18
-2 10 12 -10 20 -9 37 2 15 11 23 12 28 4 5 -8 3 -9 -7 -4 -12 8 -12 6 0 -8
16 -20 22 -22 19 -4 -2 6 3 11 10 10 6 -2 12 2 12 8 0 6 7 3 16 -5 11 -12 20
-13 33 -6 10 5 22 6 26 2 5 -4 5 -1 0 7 -5 9 -3 12 6 9 8 -3 13 -11 11 -18 -2
-10 0 -11 11 -2 8 7 16 10 19 7 3 -3 11 2 18 11 12 13 11 17 -1 25 -9 5 -10 9
-2 9 6 0 14 -4 18 -10 3 -5 12 -7 20 -3 10 3 15 -1 15 -13 0 -14 3 -15 12 -6
8 8 8 15 -3 29 -13 17 -13 17 4 4 15 -12 20 -12 26 -2z m165 -7 c3 -5 -1 -9
-9 -9 -8 0 -12 4 -9 9 3 4 7 8 9 8 2 0 6 -4 9 -8z m-270 -20 c3 -5 -1 -9 -9
-9 -8 0 -12 4 -9 9 3 4 7 8 9 8 2 0 6 -4 9 -8z m406 -6 c0 -3 -4 -8 -10 -11
-5 -3 -10 -1 -10 4 0 6 5 11 10 11 6 0 10 -2 10 -4z m114 -19 c3 3 6 1 6 -5 0
-15 -38 -11 -45 5 -3 10 0 11 14 4 10 -6 21 -7 25 -4z m-1196 -32 c-3 -3 -9 2
-12 12 -6 14 -5 15 5 6 7 -7 10 -15 7 -18z m-1097 -12 c13 -16 12 -17 -3 -4
-10 7 -18 15 -18 17 0 8 8 3 21 -13z m2430 -10 c13 -16 12 -17 -3 -4 -17 13
-22 21 -14 21 2 0 10 -8 17 -17z m-1401 1 c0 -8 -19 -13 -24 -6 -3 5 1 9 9 9
8 0 15 -2 15 -3z m1447 -37 c0 -8 -6 -14 -14 -14 -9 0 -10 4 -2 14 6 7 12 13
14 13 1 0 2 -6 2 -13z m-2507 -7 c0 -5 -5 -10 -11 -10 -5 0 -7 5 -4 10 3 6 8
10 11 10 2 0 4 -4 4 -10z m910 -60 c0 -5 -5 -10 -11 -10 -5 0 -7 5 -4 10 3 6
8 10 11 10 2 0 4 -4 4 -10z m300 -10 c0 -5 -5 -10 -11 -10 -5 0 -7 5 -4 10 3
6 8 10 11 10 2 0 4 -4 4 -10z m33 -3 c3 -8 -1 -14 -8 -14 -7 0 -11 6 -8 14 3
7 6 13 8 13 2 0 5 -6 8 -13z m22 -7 c-2 -11 0 -20 6 -20 5 0 9 4 9 9 0 5 7 12
16 15 14 5 15 4 5 -8 -9 -11 -8 -15 4 -20 11 -4 14 -2 10 7 -4 6 -1 5 7 -4 7
-9 23 -14 37 -12 21 3 22 1 10 -13 -13 -16 -12 -16 8 -4 12 8 19 19 17 25 -3
5 8 -6 25 -25 31 -36 39 -35 20 3 -9 20 -9 20 4 5 8 -10 19 -18 24 -18 6 0 16
-7 23 -16 11 -12 11 -15 -1 -12 -8 2 -18 8 -22 13 -5 6 -7 4 -4 -5 2 -8 9 -16
15 -16 7 -1 18 -2 25 -3 8 -1 8 -4 -3 -12 -12 -9 -12 -10 4 -5 11 4 23 1 28
-6 6 -10 8 -10 8 0 0 6 4 12 10 12 5 0 6 -8 3 -17 -5 -15 -4 -16 8 -7 22 18
45 13 47 -10 0 -12 -2 -16 -6 -9 -5 8 -13 9 -22 3 -13 -8 -12 -10 3 -10 9 0
17 -6 17 -12 0 -10 2 -10 8 -1 13 20 47 9 44 -15 -2 -13 4 -23 18 -27 11 -3
18 -10 16 -14 -7 -10 38 -9 45 2 4 5 10 0 14 -12 3 -11 11 -21 16 -21 5 0 9
-7 9 -16 0 -8 4 -13 9 -9 5 3 11 -4 13 -16 2 -12 13 -28 26 -37 20 -13 22 -13
16 2 -3 9 -10 14 -14 11 -14 -9 -23 16 -11 28 9 9 10 7 5 -7 -5 -14 -4 -17 4
-12 7 4 15 1 18 -8 3 -9 10 -13 15 -10 5 3 6 -2 3 -10 -3 -9 -11 -16 -18 -16
-6 0 -4 -5 4 -10 8 -5 20 -10 25 -10 6 0 4 4 -3 9 -10 6 -10 10 1 19 11 10 13
6 12 -18 -2 -36 10 -59 18 -35 5 11 3 14 -6 9 -6 -4 -8 -3 -4 1 14 16 33 13
33 -5 0 -10 -5 -16 -11 -12 -5 3 -3 -5 6 -18 9 -14 28 -26 42 -28 27 -3 44
-33 31 -54 -6 -9 -3 -9 9 1 15 12 17 11 17 -3 0 -11 5 -14 12 -10 8 5 9 2 4
-11 -6 -16 -4 -16 10 -4 16 13 16 12 5 -8 -9 -18 -9 -22 2 -18 7 3 21 -2 32
-10 19 -16 19 -16 -2 -5 -13 6 -23 7 -23 1 0 -5 7 -12 16 -15 9 -3 12 -11 8
-18 -5 -8 0 -7 11 2 17 14 18 14 6 -8 -12 -22 -11 -23 5 -14 14 8 22 5 37 -14
10 -13 23 -21 29 -18 7 4 8 2 4 -4 -4 -6 3 -21 15 -33 16 -16 18 -21 6 -16 -9
3 -17 2 -17 -3 0 -9 15 -14 33 -11 4 1 3 -7 -3 -18 -15 -29 -12 -38 6 -15 8
10 12 13 8 5 -5 -11 -3 -13 9 -8 9 3 16 3 15 -1 -3 -17 22 -61 34 -58 7 1 10
1 6 -1 -4 -2 -4 -11 -1 -19 3 -7 9 -11 14 -8 5 3 6 -2 3 -10 -3 -9 -11 -16
-18 -16 -6 0 -3 -5 7 -11 9 -6 15 -14 12 -19 -3 -5 -1 -12 5 -15 6 -4 9 -1 8
6 -2 6 3 14 10 16 8 3 10 -1 5 -13 -5 -13 -3 -15 7 -9 10 6 11 4 4 -6 -5 -8
-9 -18 -9 -24 -1 -5 -7 -9 -14 -7 -7 1 -10 -2 -6 -8 5 -8 11 -7 21 1 10 8 18
9 27 0 8 -6 17 -7 22 -3 4 4 2 -3 -4 -15 -6 -13 -8 -23 -4 -23 4 0 1 -5 -7
-11 -13 -9 -13 -10 0 -7 8 1 26 -4 39 -11 22 -12 23 -15 8 -26 -15 -11 -14
-13 8 -23 18 -8 23 -17 20 -34 -4 -21 -3 -22 9 -5 12 15 15 16 26 2 11 -13 10
-14 -4 -9 -11 4 -16 1 -16 -10 0 -9 6 -16 14 -16 8 0 18 -5 22 -12 4 -6 3 -8
-3 -5 -6 4 -13 -2 -16 -12 -3 -14 -1 -18 10 -14 12 5 14 1 8 -18 -7 -21 -6
-22 9 -10 14 12 16 12 10 -4 -6 -14 -4 -16 6 -10 8 5 11 4 7 -2 -4 -6 0 -13 8
-16 8 -4 12 -15 10 -27 -2 -11 1 -20 8 -20 7 0 4 -5 -6 -11 -14 -8 -15 -14 -5
-32 7 -12 11 -26 10 -30 -1 -5 2 -6 8 -2 6 4 4 16 -7 33 -9 15 -13 24 -8 20 4
-4 15 -2 24 4 13 10 14 10 4 -2 -15 -16 -17 -34 -5 -26 12 7 11 -26 -1 -41 -6
-9 -5 -18 3 -28 7 -8 9 -15 5 -15 -4 0 -2 -6 4 -13 6 -8 7 -18 3 -22 -4 -5 -1
-5 6 -1 9 5 12 -4 12 -33 0 -23 -4 -41 -10 -41 -5 0 -7 8 -4 18 5 14 4 14 -4
2 -8 -10 -7 -19 1 -29 10 -12 8 -13 -13 -8 l-25 6 25 -20 c18 -14 20 -17 6
-12 -15 5 -17 3 -12 -8 4 -8 0 -5 -9 6 l-17 20 4 -20 c2 -12 -2 -19 -10 -17
-8 1 -11 -2 -7 -7 3 -6 11 -9 18 -7 7 1 9 1 4 -1 -4 -3 -4 -10 -1 -15 4 -7 2
-8 -4 -4 -6 3 -16 -3 -22 -15 -11 -19 -12 -19 -24 -3 -12 16 -13 15 -11 -4 1
-12 5 -25 10 -29 4 -5 5 -2 0 6 -5 10 -4 12 4 7 16 -10 4 -26 -14 -19 -11 4
-13 1 -8 -13 4 -12 3 -15 -5 -10 -8 5 -10 1 -5 -11 6 -16 4 -16 -17 2 l-23 20
18 -29 c17 -26 18 -29 2 -38 -9 -5 -17 -16 -17 -24 0 -8 -5 -12 -11 -9 -7 5
-3 15 11 30 17 18 18 24 7 28 -9 3 -14 -1 -13 -11 0 -9 -4 -16 -11 -15 -7 2
-10 -6 -8 -17 3 -14 -2 -20 -13 -20 -10 0 -13 -3 -7 -8 6 -4 11 -14 13 -22 3
-10 -3 -9 -19 5 l-23 20 17 -27 c14 -23 15 -26 2 -22 -11 5 -14 1 -9 -12 5
-18 5 -18 -6 -1 -6 9 -8 23 -4 30 5 8 4 9 -4 2 -6 -6 -13 -20 -15 -32 -2 -13
-6 -25 -10 -29 -3 -4 -5 3 -2 15 2 11 -1 21 -6 21 -6 0 -7 6 -3 13 5 8 2 8 -9
-2 -18 -15 -23 -26 -7 -16 15 9 12 -1 -4 -14 -12 -10 -14 -7 -12 18 2 25 0 28
-15 20 -22 -11 -39 -12 -21 -1 7 5 10 16 6 25 -8 23 -25 22 -18 0 5 -15 4 -15
-4 -3 -8 10 -8 18 0 27 16 19 2 16 -18 -4 -17 -17 -17 -17 -11 -1 3 10 2 20
-3 23 -5 3 -7 13 -4 23 3 9 -2 6 -11 -8 l-16 -25 7 24 c5 18 3 22 -7 15 -12
-6 -12 -5 0 9 9 12 10 17 2 17 -7 0 -9 5 -5 12 4 6 3 8 -4 5 -5 -4 -17 -4 -26
-1 -12 5 -14 10 -6 19 9 11 7 12 -9 8 -13 -3 -21 -1 -21 6 0 7 -4 10 -9 7 -5
-4 -8 5 -6 19 1 16 -3 25 -12 25 -8 0 -11 -4 -8 -10 11 -18 -1 -10 -26 17 -13
14 -19 23 -12 19 6 -3 14 -2 18 4 3 5 1 10 -5 10 -6 0 -8 5 -4 13 5 7 0 6 -11
-3 -17 -14 -18 -13 -12 4 6 14 4 17 -8 12 -9 -3 -13 -2 -10 4 3 6 0 10 -7 10
-7 0 -20 10 -28 23 -14 22 -16 27 -19 48 0 5 -7 7 -13 3 -9 -5 -9 -2 1 9 9 12
10 17 2 17 -7 0 -9 4 -6 10 3 6 -1 7 -10 3 -14 -5 -14 -8 -3 -15 11 -8 11 -9
0 -6 -8 2 -14 8 -14 13 0 6 -4 17 -9 26 -5 9 -4 20 2 26 6 6 5 10 -5 10 -8 0
-13 -4 -10 -8 2 -4 1 -10 -4 -13 -4 -2 -9 7 -10 20 -1 17 2 23 10 18 7 -4 8
-3 4 5 -6 9 -11 9 -22 0 -12 -10 -17 -9 -27 0 -9 10 -9 12 2 9 7 -2 16 4 18
12 3 10 2 11 -4 4 -4 -6 -23 -10 -41 -8 -21 2 -30 -1 -26 -8 5 -7 2 -8 -5 -4
-9 6 -8 13 6 29 18 22 18 22 -2 6 -11 -9 -28 -15 -38 -14 -15 3 -16 1 -6 -11
6 -8 9 -18 5 -21 -4 -4 -10 -3 -14 2 -11 16 -29 15 -29 0 0 -8 5 -11 10 -8 6
4 7 1 3 -6 -5 -7 -13 -10 -20 -8 -12 5 -38 -18 -30 -26 3 -3 0 -8 -6 -12 -6
-3 -9 -2 -8 3 2 6 -1 10 -7 10 -5 0 -9 -4 -8 -8 2 -5 -6 -7 -17 -5 -11 2 -24
-3 -29 -13 -7 -13 -12 -14 -23 -4 -8 6 -19 8 -23 4 -5 -4 -5 -1 -1 6 4 6 2 12
-5 12 -7 0 -9 -9 -6 -22 l6 -23 -17 21 c-16 21 -17 21 -33 1 -12 -16 -18 -17
-24 -7 -6 9 -4 11 5 5 9 -5 11 -4 6 4 -4 6 -12 9 -17 6 -5 -4 -9 -1 -9 4 0 8
-6 7 -19 -1 -11 -6 -17 -19 -14 -27 3 -10 2 -12 -4 -5 -4 6 -18 10 -30 9 -15
-1 -19 3 -15 13 3 10 1 13 -6 8 -7 -4 -12 -2 -12 3 0 6 5 11 12 11 6 0 9 2 6
5 -9 10 -38 -7 -31 -18 3 -6 1 -7 -5 -3 -7 4 -12 2 -12 -5 0 -7 -3 -10 -6 -7
-3 4 0 16 6 28 11 21 11 21 -17 4 -16 -10 -23 -12 -15 -4 6 8 12 19 12 25 0 5
-5 3 -10 -5 -9 -13 -11 -13 -21 0 -8 12 -9 10 -4 -9 5 -17 4 -21 -5 -16 -6 4
-10 17 -8 30 3 16 0 22 -11 21 -9 -1 -15 5 -13 13 3 12 0 12 -12 2 -8 -7 -12
-20 -9 -28 5 -11 3 -14 -6 -9 -7 5 -11 17 -8 27 3 11 1 19 -4 19 -5 0 -10 -8
-10 -17 -1 -17 -2 -17 -6 0 -5 20 -23 23 -23 5 0 -7 -5 -5 -11 5 -5 9 -16 17
-24 17 -8 0 -13 6 -11 13 1 6 1 9 -1 5 -3 -5 -12 -8 -21 -9 -11 0 -12 -2 -4
-6 22 -9 13 -20 -14 -17 -21 2 -23 0 -13 -12 15 -19 4 -18 -15 1 -13 14 -15
12 -13 -12 1 -17 -3 -27 -10 -26 -8 2 -10 -4 -6 -15 6 -15 4 -15 -9 -4 -14 11
-16 10 -11 -6 5 -21 -21 -37 -40 -25 -7 4 -5 -2 3 -12 14 -17 13 -18 -2 -12
-10 3 -18 2 -18 -3 0 -6 5 -10 10 -10 6 0 10 -5 10 -11 0 -5 -4 -7 -10 -4 -5
3 -10 -1 -10 -10 0 -9 -4 -13 -10 -10 -5 3 -10 2 -10 -4 0 -5 6 -12 13 -15 6
-4 2 -4 -11 -2 -25 5 -54 -27 -45 -50 5 -13 -15 -20 -41 -15 -5 1 -4 -5 3 -13
11 -13 11 -17 -2 -22 -9 -3 -22 -2 -29 2 -10 5 -10 4 -1 -6 17 -18 0 -46 -31
-54 -14 -3 -30 -15 -36 -26 -6 -11 -14 -18 -18 -16 -5 3 -9 -4 -9 -15 -1 -10
-8 -26 -17 -34 -17 -18 -30 -20 -20 -3 5 7 3 8 -5 3 -9 -5 -10 -10 -2 -18 16
-16 -7 -41 -24 -27 -9 8 -14 6 -19 -5 -3 -9 -2 -14 3 -11 5 3 11 0 14 -8 4
-10 0 -12 -15 -8 -16 4 -19 2 -13 -8 6 -9 4 -11 -5 -5 -19 12 -60 13 -60 1 0
-5 -3 -6 -6 -3 -4 4 -1 14 7 24 9 11 10 14 2 9 -12 -6 -17 4 -14 26 0 3 -14 5
-32 3 -17 -2 -26 -1 -19 2 16 6 16 33 0 33 -9 0 -8 4 2 10 8 5 10 10 5 10 -6
0 -16 -5 -23 -12 -9 -9 -12 -9 -12 -1 0 7 5 15 10 18 6 4 7 11 4 17 -5 7 -12
5 -20 -7 -12 -15 -13 -14 -10 11 4 39 -3 54 -21 47 -12 -5 -14 -3 -8 7 6 10 4
12 -8 7 -9 -3 -19 -1 -23 5 -4 7 -3 8 4 4 8 -5 11 1 10 18 -1 14 -4 23 -6 22
-8 -9 -52 47 -52 67 0 18 -2 19 -10 7 -8 -13 -10 -12 -10 4 0 10 -8 25 -17 33
-17 14 -17 14 2 9 18 -5 18 -4 -2 10 -24 17 -30 34 -12 34 5 0 7 -4 4 -10 -3
-5 -2 -10 3 -10 5 0 9 14 9 30 0 20 -5 30 -16 31 -9 1 -5 5 9 9 18 6 20 8 7 9
-11 1 -15 6 -11 12 4 7 8 21 9 33 4 36 5 37 17 30 7 -4 8 -3 4 5 -6 9 -11 9
-24 -1 -13 -11 -14 -11 -7 2 13 20 13 32 1 48 -7 9 -5 12 5 10 8 -2 14 5 14
16 0 11 7 21 15 23 13 4 13 3 0 -7 -10 -8 -11 -10 -2 -8 8 2 13 7 12 12 -1 5
4 13 12 18 9 6 5 8 -12 4 -14 -3 -19 -3 -12 0 6 3 12 12 12 19 0 8 7 21 16 29
8 9 12 16 7 16 -5 0 -15 -6 -22 -12 -10 -11 -11 -10 -6 5 4 9 12 17 19 17 6 0
4 5 -4 10 -8 5 -10 10 -4 10 7 0 15 7 18 16 5 14 4 15 -9 4 -8 -7 -15 -8 -15
-3 0 13 39 53 51 53 6 0 8 4 4 9 -3 6 3 14 12 20 12 7 13 10 4 11 -7 0 -11 6
-8 14 4 11 1 13 -11 10 -10 -4 -13 -3 -6 3 6 4 10 18 9 30 -1 15 3 19 13 15
11 -4 14 -1 9 11 -3 9 -2 17 2 17 5 0 12 -6 14 -12 4 -8 6 -7 6 4 1 9 4 18 9
21 4 2 1 2 -6 1 -6 -2 -12 4 -12 12 0 11 5 14 17 10 10 -4 14 -4 10 0 -10 10
13 35 27 27 6 -3 6 0 -1 7 -11 12 -15 11 -26 -5 -13 -17 -14 -17 -12 3 0 11 6
27 13 35 7 7 9 17 5 20 -3 4 -4 7 -1 7 3 0 12 -8 19 -17 12 -14 12 -16 0 -8
-10 5 -12 4 -7 -4 4 -6 12 -9 17 -5 5 3 7 9 4 14 -3 4 1 11 7 13 8 3 6 6 -5 6
-10 1 -15 6 -12 11 4 6 11 7 17 4 8 -5 9 -1 5 9 -20 48 -20 53 -4 32 14 -18
15 -18 11 13 -3 29 -2 31 11 18 18 -17 20 -30 3 -20 -7 4 -8 3 -4 -5 10 -15
29 -3 22 15 -3 7 -1 16 4 19 5 3 6 13 3 22 -5 11 -3 14 6 8 10 -6 11 -3 1 15
-7 12 -8 20 -2 17 5 -4 18 1 28 9 10 9 13 13 7 9 -7 -3 -13 -1 -13 4 0 6 7 11
15 11 13 0 14 4 4 23 -11 20 -11 21 5 8 13 -11 19 -12 29 -2 7 7 12 17 12 24
1 7 7 11 15 9 13 -3 13 -1 1 10 -11 10 -14 10 -18 1 -3 -7 -9 -13 -14 -13 -17
0 2 21 28 31 19 7 23 14 18 32 -7 21 -6 21 7 3 10 -13 15 -15 16 -5 3 42 7 59
15 59 5 0 6 -9 2 -19 -3 -11 -1 -22 4 -26 6 -3 8 0 5 8 -3 8 2 17 12 21 13 5
14 9 4 21 -12 15 -11 16 12 19 6 0 13 7 16 14 2 8 -3 10 -15 6 -16 -5 -16 -4
-2 5 9 6 25 9 35 7 14 -3 20 2 20 14 0 15 -3 17 -15 7 -12 -9 -13 -9 -7 0 4 7
16 18 26 23 16 9 19 8 14 -7 -5 -17 -5 -17 6 0 6 9 9 21 5 26 -8 13 44 51 61
44 8 -3 14 1 14 9 0 7 9 21 20 31 24 20 34 22 24 5 -6 -10 -3 -9 8 0 9 8 14
20 11 28 -4 10 0 12 11 8 11 -4 16 -1 16 11 0 10 -5 13 -12 9 -7 -5 -8 -3 -4
5 6 9 13 8 28 -6 21 -18 21 -18 8 7 -12 23 -12 24 4 11 14 -12 16 -12 11 0 -6
17 11 46 22 36 4 -5 2 -12 -6 -16 -10 -6 -9 -10 4 -14 9 -4 13 -3 10 3 -3 6
-1 10 5 10 6 0 8 5 5 10 -3 6 -1 10 5 10 6 0 9 4 6 9 -3 5 2 15 11 22 9 8 14
9 10 3 -4 -7 0 -14 7 -17 10 -4 14 0 11 12 -3 15 2 18 26 15 27 -3 28 -2 18
24 l-9 27 21 -25 c11 -14 18 -20 15 -13 -9 18 4 45 18 35 6 -5 25 -8 41 -8 23
1 29 5 27 19 -2 9 2 17 7 17 5 0 8 -9 6 -20z m86 -17 c13 -16 12 -17 -3 -4
-10 7 -18 15 -18 17 0 8 8 3 21 -13z m-1191 3 c0 -11 -19 -15 -25 -6 -3 5 1
10 9 10 9 0 16 -2 16 -4z m1620 -36 c7 -13 7 -21 -2 -26 -6 -4 -8 -3 -4 4 3 6
-1 17 -9 25 -8 9 -15 18 -15 22 0 11 19 -5 30 -25z m-650 14 c0 -8 -19 -13
-24 -6 -3 5 1 9 9 9 8 0 15 -2 15 -3z m-330 -34 c-8 -5 -19 -10 -25 -10 -5 0
-3 5 5 10 8 5 20 10 25 10 6 0 3 -5 -5 -10z m1023 -4 c4 -10 1 -13 -8 -9 -8 3
-12 9 -9 14 7 12 11 11 17 -5z m-288 -24 c-3 -3 -11 0 -18 7 -9 10 -8 11 6 5
10 -3 15 -9 12 -12z m1415 8 c0 -5 -5 -10 -11 -10 -5 0 -7 5 -4 10 3 6 8 10
11 10 2 0 4 -4 4 -10z m-2204 -32 c4 -7 3 -8 -4 -4 -7 4 -12 2 -12 -5 0 -7 -3
-10 -6 -6 -6 5 3 27 11 27 2 0 7 -5 11 -12z m-480 -20 c4 -7 3 -8 -4 -4 -7 4
-12 2 -12 -5 0 -7 -3 -10 -6 -6 -6 5 3 27 11 27 2 0 7 -5 11 -12z m-361 -28
c-3 -5 -11 -10 -16 -10 -6 0 -7 5 -4 10 3 6 11 10 16 10 6 0 7 -4 4 -10z m775
-3 c0 -2 -12 -17 -26 -33 -27 -30 -23 -13 4 19 14 16 22 21 22 14z m995 -17
c-3 -5 -2 -10 2 -10 5 0 18 -7 29 -15 16 -14 15 -14 -14 0 -18 9 -30 20 -27
25 4 6 8 10 11 10 3 0 2 -4 -1 -10z m1122 4 c-3 -3 -12 -4 -19 -1 -8 3 -5 6 6
6 11 1 17 -2 13 -5z m-2173 -65 c-3 -5 -10 -7 -15 -3 -5 3 -7 10 -3 15 3 5 10
7 15 3 5 -3 7 -10 3 -15z m-554 1 c0 -5 -5 -10 -11 -10 -5 0 -7 5 -4 10 3 6 8
10 11 10 2 0 4 -4 4 -10z m-183 -36 c-3 -3 -12 -4 -19 -1 -8 3 -5 6 6 6 11 1
17 -2 13 -5z m267 -52 c3 -5 -1 -9 -9 -9 -8 0 -12 4 -9 9 3 4 7 8 9 8 2 0 6
-4 9 -8z m2495 -65 c8 -10 7 -14 -4 -14 -8 0 -12 4 -9 8 2 4 -2 10 -8 12 -8 4
-9 6 -2 6 6 1 17 -5 23 -12z m-713 -23 c-5 -13 -2 -15 15 -11 16 4 19 3 11 -5
-15 -15 -43 -2 -36 17 3 8 8 15 11 15 3 0 2 -7 -1 -16z m621 -23 c0 -11 -5
-18 -9 -15 -4 3 -5 11 -1 19 7 21 12 19 10 -4z m-2687 -17 c0 -8 -19 -13 -24
-6 -3 5 1 9 9 9 8 0 15 -2 15 -3z m2685 -44 c3 -18 2 -20 -10 -10 -8 6 -11 18
-8 26 7 18 12 13 18 -16z m-1945 -44 c0 -3 -4 -8 -10 -11 -5 -3 -10 -1 -10 4
0 6 5 11 10 11 6 0 10 -2 10 -4z m2430 -15 c0 -6 -4 -12 -8 -15 -5 -3 -9 1 -9
9 0 8 4 15 9 15 4 0 8 -4 8 -9z m-160 -36 c0 -2 -6 -5 -13 -8 -8 -3 -14 1 -14
8 0 7 6 11 14 8 7 -3 13 -6 13 -8z m-115 -5 c3 -5 1 -10 -4 -10 -6 0 -11 5
-11 10 0 6 2 10 4 10 3 0 8 -4 11 -10z m-405 -35 c7 -8 9 -15 6 -15 -4 0 -14
7 -22 15 -9 8 -11 15 -6 15 5 0 15 -7 22 -15z m530 1 c0 -2 -8 -10 -17 -17
-16 -13 -17 -12 -4 4 13 16 21 21 21 13z m-2840 -26 c0 -5 -5 -10 -11 -10 -5
0 -7 5 -4 10 3 6 8 10 11 10 2 0 4 -4 4 -10z m217 -10 c1 -11 -2 -20 -7 -20
-6 0 -7 17 -1 38 3 8 7 -1 8 -18z m242 6 c9 -11 9 -16 -1 -22 -7 -4 -10 -4 -6
1 4 4 3 14 -3 22 -6 7 -9 13 -6 13 2 0 10 -6 16 -14z m-502 -11 c0 -8 -4 -15
-9 -15 -10 0 -11 14 -1 23 9 10 10 9 10 -8z m268 -44 c-3 -6 -11 -11 -16 -11
-5 0 -4 6 3 14 14 16 24 13 13 -3z m2769 -10 c3 -5 -1 -11 -9 -14 -9 -4 -12
-1 -8 9 6 16 10 17 17 5z m-574 -66 c7 -9 8 -15 2 -15 -5 0 -12 7 -16 15 -3 8
-4 15 -2 15 2 0 9 -7 16 -15z m-2619 -54 c-4 -9 -6 -22 -5 -28 1 -7 2 -20 3
-29 1 -11 7 -14 19 -9 14 5 15 4 5 -6 -10 -10 -16 -10 -25 -1 -17 17 -17 89
-1 89 7 0 9 -6 4 -16z m2469 -25 c0 -11 -19 -15 -25 -6 -3 5 1 10 9 10 9 0 16
-2 16 -4z m281 -59 c-10 -9 -11 -8 -5 6 3 10 9 15 12 12 3 -3 0 -11 -7 -18z
m-231 -1 c0 -3 -4 -8 -10 -11 -5 -3 -10 -1 -10 4 0 6 5 11 10 11 6 0 10 -2 10
-4z m220 -26 c0 -5 -2 -10 -4 -10 -3 0 -8 5 -11 10 -3 6 -1 10 4 10 6 0 11 -4
11 -10z m-200 -40 c0 -5 -2 -10 -4 -10 -3 0 -8 5 -11 10 -3 6 -1 10 4 10 6 0
11 -4 11 -10z m-2032 -29 c-6 -10 -17 -18 -26 -18 -12 0 -11 3 3 13 9 7 14 17
10 23 -3 7 0 8 9 5 12 -4 13 -10 4 -23z m-477 -24 c-10 -9 -11 -8 -5 6 3 10 9
15 12 12 3 -3 0 -11 -7 -18z m24 -49 c5 4 5 1 1 -6 -6 -10 -11 -10 -22 -1 -8
6 -14 14 -14 16 0 3 6 0 13 -6 8 -6 18 -7 22 -3z m3071 -13 c-1 -8 -5 -17 -8
-21 -5 -4 -4 16 1 34 3 9 9 -1 7 -13z m-100 -251 c1 -9 0 -13 -4 -10 -3 4 -7
14 -8 22 -1 9 0 13 4 10 3 -4 7 -14 8 -22z m-2866 -8 c0 -11 -19 -15 -25 -6
-3 5 1 10 9 10 9 0 16 -2 16 -4z m1199 -10 c9 -11 9 -16 -1 -22 -7 -4 -10 -4
-6 1 4 4 3 14 -3 22 -6 7 -9 13 -6 13 2 0 10 -6 16 -14z m1372 -10 c-9 -11 -9
-15 1 -19 9 -4 9 -6 1 -6 -19 -1 -27 20 -12 30 20 13 23 11 10 -5z m9 -46 c0
-5 -2 -10 -4 -10 -3 0 -8 5 -11 10 -3 6 -1 10 4 10 6 0 11 -4 11 -10z m-1157
-14 c4 -10 1 -13 -9 -9 -15 6 -19 23 -5 23 5 0 11 -7 14 -14z m49 -8 c-7 -7
-12 -8 -12 -2 0 6 3 14 7 17 3 4 9 5 12 2 2 -3 -1 -11 -7 -17z m-606 -110 c-9
-5 -13 -14 -10 -20 4 -7 2 -8 -4 -4 -9 5 -9 12 0 26 7 10 16 16 21 13 5 -3 2
-10 -7 -15z m-540 -56 c-3 -3 2 -11 12 -19 19 -16 -4 -7 -25 10 -15 11 -7 30
8 21 6 -3 8 -8 5 -12z m71 -97 c0 -8 -4 -12 -9 -9 -4 3 -8 9 -8 15 0 5 4 9 8
9 5 0 9 -7 9 -15z m333 -32 c0 -3 -6 -3 -12 0 -7 2 -19 -3 -26 -12 -11 -14
-12 -13 -2 6 6 14 16 20 25 17 8 -4 15 -8 15 -11z m-530 -3 c0 -5 -2 -10 -4
-10 -3 0 -8 5 -11 10 -3 6 -1 10 4 10 6 0 11 -4 11 -10z m283 -95 c-7 -21 -12
-19 -10 4 0 11 5 18 9 15 4 -3 5 -11 1 -19z m77 -39 c0 -3 -4 -8 -10 -11 -5
-3 -10 -1 -10 4 0 6 5 11 10 11 6 0 10 -2 10 -4z m-197 -59 c4 3 7 4 7 0 0
-17 -20 -14 -36 6 -19 22 -19 22 2 4 11 -9 24 -14 27 -10z m12 -37 c-3 -5 -11
-10 -16 -10 -6 0 -7 5 -4 10 3 6 11 10 16 10 6 0 7 -4 4 -10z m-159 -96 c2
-12 -1 -13 -12 -3 -7 6 -11 16 -8 21 7 11 17 3 20 -18z m1180 11 c-3 -8 -1
-15 5 -15 6 0 8 -4 5 -9 -4 -5 2 -8 11 -7 9 2 19 9 21 17 3 12 2 12 -6 0 -6
-8 -12 -9 -16 -3 -3 6 -2 14 4 17 14 8 43 -2 37 -13 -3 -4 1 -16 9 -27 8 -10
14 -14 14 -8 0 14 49 23 57 10 3 -5 1 -7 -5 -3 -6 3 -13 2 -16 -3 -4 -5 2 -8
11 -6 10 2 18 4 18 5 0 1 10 3 22 4 12 1 20 -1 17 -6 -3 -4 0 -8 6 -8 6 0 8
-5 4 -12 -5 -8 -2 -9 9 -5 10 3 17 2 17 -3 0 -6 5 -10 11 -10 5 0 7 5 3 12 -4
7 -3 8 5 4 6 -4 9 -11 6 -16 -3 -4 2 -10 10 -13 9 -4 12 -1 9 8 -6 15 20 15
33 0 4 -4 2 -5 -4 -1 -7 4 -13 2 -13 -4 0 -7 13 -9 38 -5 31 4 33 4 14 -5 -25
-11 -21 -30 6 -29 14 0 13 2 -3 9 -19 8 -19 9 3 9 12 1 22 -3 22 -7 0 -5 12
-14 27 -21 23 -11 25 -10 14 3 -10 12 -9 14 8 9 12 -3 18 -10 14 -17 -3 -6 4
-2 16 8 17 16 21 17 16 4 -6 -14 0 -16 29 -13 20 2 36 -1 36 -7 0 -5 -4 -7 -9
-3 -5 3 -12 2 -15 -3 -2 -4 6 -9 20 -10 13 -1 24 3 24 9 0 5 4 7 10 4 6 -4 5
-11 -3 -19 -6 -8 -16 -11 -21 -8 -5 3 -6 0 -2 -7 6 -9 11 -9 22 0 25 21 33 -4
12 -36 -12 -19 -17 -23 -14 -10 5 16 1 21 -14 21 -12 0 -16 -4 -11 -9 11 -11
3 -37 -10 -37 -4 0 -6 8 -3 18 5 14 4 14 -4 2 -8 -10 -8 -18 0 -27 6 -8 8 -16
4 -20 -3 -3 -6 -2 -6 4 0 6 -7 13 -15 17 -12 4 -13 2 -6 -13 9 -15 7 -17 -13
-14 -13 3 -27 0 -30 -6 -4 -6 -1 -9 7 -5 8 3 14 -1 14 -10 0 -8 -5 -14 -11
-13 -6 1 -10 -4 -8 -11 1 -8 -1 -11 -6 -8 -11 7 -37 -11 -37 -26 0 -7 -8 -12
-18 -10 -10 2 -17 -3 -17 -13 0 -13 -4 -14 -20 -5 -24 13 -27 2 -4 -14 14 -10
13 -12 -3 -13 -47 -3 -63 -8 -64 -20 -1 -7 -2 -19 -3 -25 -1 -7 -13 -13 -28
-12 -18 1 -25 -3 -21 -12 3 -8 9 -11 14 -8 5 3 6 -2 3 -10 -5 -14 -8 -14 -21
-1 -20 21 -26 19 -13 -4 8 -17 7 -19 -16 -16 -19 2 -24 -1 -19 -12 3 -11 1
-13 -10 -9 -10 4 -15 -1 -15 -14 0 -11 -5 -20 -11 -20 -5 0 -7 4 -4 10 3 6 -1
7 -9 4 -9 -3 -13 -10 -10 -15 3 -5 0 -9 -6 -9 -6 0 -8 -6 -5 -12 4 -7 -3 -2
-15 12 -12 14 -19 19 -15 12 4 -7 1 -21 -7 -30 -12 -15 -11 -16 5 -3 20 15 23
7 5 -13 -11 -11 -15 -11 -25 3 -11 15 -12 14 -13 -2 0 -10 -5 -15 -10 -12 -6
4 -8 12 -4 18 3 7 -2 3 -11 -8 -17 -20 -17 -20 -10 5 7 22 6 23 -9 11 -11 -9
-16 -10 -16 -2 0 7 -3 10 -8 7 -4 -2 -16 2 -26 9 -18 13 -18 14 2 12 11 0 18
-6 15 -12 -4 -5 -4 -8 0 -5 8 7 3 24 -8 27 -48 10 -59 14 -64 21 -3 4 -23 18
-43 31 -40 24 -49 35 -20 24 14 -6 15 -4 5 9 -7 8 -10 18 -6 21 3 4 1 7 -5 7
-7 0 -12 -4 -12 -10 0 -16 -16 -12 -18 5 -1 8 -3 22 -4 30 -1 8 -5 12 -9 9 -5
-2 -5 -12 -2 -22 3 -9 2 -14 -2 -9 -5 4 -9 15 -10 25 0 9 -5 17 -10 17 -6 0
-9 -6 -7 -12 2 -7 -2 -13 -8 -13 -5 0 -9 3 -9 8 4 26 -4 42 -26 48 -14 3 -22
10 -19 15 3 5 0 9 -6 9 -6 0 -9 4 -6 9 3 5 -1 14 -8 20 -9 8 -16 8 -20 2 -8
-12 -36 -3 -36 11 0 6 7 5 15 -2 13 -11 14 -10 10 3 -4 8 -20 21 -36 27 -16 7
-29 17 -29 22 0 5 5 6 12 2 6 -4 8 -3 5 3 -4 6 -18 9 -31 8 -15 -2 -24 2 -23
8 1 7 -4 11 -10 9 -9 -1 -13 10 -13 34 0 21 -4 33 -10 29 -5 -3 -10 -1 -10 4
0 14 17 14 25 1 8 -13 35 6 35 23 0 6 -7 2 -15 -9 -8 -10 -14 -14 -14 -9 0 6
6 19 14 29 10 13 15 15 15 6 0 -9 6 -8 22 6 12 10 18 13 13 5 -5 -9 -3 -12 6
-9 8 3 23 1 34 -5 18 -9 19 -9 5 8 -14 17 -14 17 7 7 25 -14 56 -6 46 12 -4 6
0 6 9 -2 13 -10 18 -10 24 -1 5 8 3 9 -5 4 -10 -6 -11 -3 -2 14 13 24 23 29
15 7 -3 -8 0 -17 7 -22 7 -4 10 -3 6 2 -3 5 1 18 9 29 8 10 14 14 14 7 0 -6 8
-9 18 -6 15 5 15 4 2 -6 -13 -10 -13 -11 0 -7 8 2 15 11 14 19 -1 15 30 18 43
3 5 -4 3 -5 -4 -1 -6 3 -14 3 -17 -2 -7 -12 26 -11 42 2 33 28 42 38 38 45 -3
4 1 8 9 8 11 0 12 -5 3 -21 -9 -18 -9 -19 3 -10 8 6 23 10 35 9 16 -1 20 4 18
21 -1 16 2 21 12 17 8 -3 17 2 20 11 3 9 8 16 11 16 3 0 3 -7 -1 -15z m1264
-10 c11 -13 10 -14 -4 -9 -9 3 -16 10 -16 15 0 13 6 11 20 -6z m35 -4 c3 -5 2
-12 -3 -15 -5 -3 -9 1 -9 9 0 17 3 19 12 6z m-1215 -11 c0 -5 -2 -10 -4 -10
-3 0 -8 5 -11 10 -3 6 -1 10 4 10 6 0 11 -4 11 -10z m-140 -4 c0 -3 -4 -8 -10
-11 -5 -3 -10 -1 -10 4 0 6 5 11 10 11 6 0 10 -2 10 -4z m-75 -15 c3 -6 -4
-15 -15 -21 -13 -7 -20 -7 -20 0 0 5 7 10 16 10 8 0 12 5 9 10 -3 6 -4 10 -1
10 3 0 7 -4 11 -9z m1475 -26 c-10 -12 -10 -18 -1 -29 9 -11 9 -16 0 -22 -8
-4 -9 -3 -5 4 4 7 2 12 -3 12 -12 0 -15 33 -4 43 13 14 25 6 13 -8z m-20 -55
c0 -5 -5 -10 -11 -10 -5 0 -7 5 -4 10 3 6 8 10 11 10 2 0 4 -4 4 -10z m-1839
-103 c-10 -9 -11 -8 -5 6 3 10 9 15 12 12 3 -3 0 -11 -7 -18z m1417 -2 c3 -3
-4 -4 -16 -2 -12 2 -24 6 -28 10 -4 3 4 4 16 2 12 -2 25 -7 28 -10z m169 -7
c-3 -8 -6 -5 -6 6 -1 11 2 17 5 13 3 -3 4 -12 1 -19z m-267 -8 c-6 -11 -13
-20 -16 -20 -2 0 0 9 6 20 6 11 13 20 16 20 2 0 0 -9 -6 -20z m-91 -87 c-6 -7
-15 -13 -20 -13 -5 0 -6 6 -3 13 3 8 11 14 19 14 11 0 12 -4 4 -14z m-1334 -3
c3 -5 1 -10 -4 -10 -6 0 -11 5 -11 10 0 6 2 10 4 10 3 0 8 -4 11 -10z m280
-19 c3 -5 2 -12 -3 -15 -5 -3 -9 1 -9 9 0 17 3 19 12 6z m645 -106 c-7 -9 -15
-13 -19 -10 -3 3 1 10 9 15 21 14 24 12 10 -5z m-516 -245 c-6 -6 -10 -3 -10
10 0 13 4 16 10 10 7 -7 7 -13 0 -20z m346 -104 c0 -3 -4 -8 -10 -11 -5 -3
-10 -1 -10 4 0 6 5 11 10 11 6 0 10 -2 10 -4z m-38 -28 c-7 -7 -12 -8 -12 -2
0 14 12 26 19 19 2 -3 -1 -11 -7 -17z m-87 -28 c-3 -5 -11 -10 -16 -10 -6 0
-7 5 -4 10 3 6 11 10 16 10 6 0 7 -4 4 -10z m30 0 c3 -5 1 -10 -4 -10 -6 0
-11 5 -11 10 0 6 2 10 4 10 3 0 8 -4 11 -10z"/>
<path d="M2195 3760 c-3 -5 -1 -10 4 -10 6 0 11 5 11 10 0 6 -2 10 -4 10 -3 0
-8 -4 -11 -10z"/>
<path d="M1597 3720 c-3 -11 -2 -22 2 -24 4 -3 8 6 9 20 2 29 -4 31 -11 4z"/>
<path d="M2850 3500 c0 -5 5 -10 11 -10 5 0 7 5 4 10 -3 6 -8 10 -11 10 -2 0
-4 -4 -4 -10z"/>
<path d="M1036 3401 c-3 -5 1 -11 9 -14 9 -4 12 -1 8 9 -6 16 -10 17 -17 5z"/>
<path d="M2842 3350 c0 -14 2 -19 5 -12 2 6 2 18 0 25 -3 6 -5 1 -5 -13z"/>
<path d="M3013 3349 c-2 -23 3 -25 10 -4 4 8 3 16 -1 19 -4 3 -9 -4 -9 -15z"/>
<path d="M985 3351 c-3 -5 -2 -12 3 -15 5 -3 9 1 9 9 0 17 -3 19 -12 6z"/>
<path d="M955 3300 c3 -5 8 -10 11 -10 2 0 4 5 4 10 0 6 -5 10 -11 10 -5 0 -7
-4 -4 -10z"/>
<path d="M3052 3280 c0 -14 2 -19 5 -12 2 6 2 18 0 25 -3 6 -5 1 -5 -13z"/>
<path d="M1843 3238 c-22 -28 -24 -38 -8 -32 9 4 13 9 11 12 -3 3 -1 11 5 19
6 7 9 13 6 13 -2 0 -9 -6 -14 -12z"/>
<path d="M765 3040 c-3 -5 -1 -10 4 -10 6 0 11 5 11 10 0 6 -2 10 -4 10 -3 0
-8 -4 -11 -10z"/>
<path d="M855 2920 c-3 -5 -1 -10 4 -10 6 0 11 5 11 10 0 6 -2 10 -4 10 -3 0
-8 -4 -11 -10z"/>
<path d="M880 2909 c0 -5 5 -7 10 -4 6 3 10 8 10 11 0 2 -4 4 -10 4 -5 0 -10
-5 -10 -11z"/>
<path d="M940 2870 c-8 -5 -10 -10 -5 -10 6 0 1 -8 -10 -16 -11 -9 -14 -14 -6
-12 8 2 21 14 29 26 16 24 14 26 -8 12z"/>
<path d="M935 2821 c-3 -5 -2 -12 3 -15 5 -3 9 1 9 9 0 17 -3 19 -12 6z"/>
<path d="M689 2593 c-13 -16 -12 -17 4 -4 9 7 17 15 17 17 0 8 -8 3 -21 -13z"/>
<path d="M605 2590 c-3 -6 1 -7 9 -4 18 7 21 14 7 14 -6 0 -13 -4 -16 -10z"/>
<path d="M600 2446 c0 -8 4 -17 9 -20 5 -4 7 3 4 14 -6 23 -13 26 -13 6z"/>
<path d="M856 2427 c3 -10 9 -15 12 -12 3 3 0 11 -7 18 -10 9 -11 8 -5 -6z"/>
<path d="M2485 3180 c-3 -5 -1 -10 4 -10 6 0 11 5 11 10 0 6 -2 10 -4 10 -3 0
-8 -4 -11 -10z"/>
<path d="M2541 3181 c-8 -5 -9 -11 -3 -15 5 -3 12 1 16 9 6 17 6 18 -13 6z"/>
<path d="M2410 3158 c0 -4 4 -8 9 -8 6 0 12 4 15 8 3 5 -1 9 -9 9 -8 0 -15 -4
-15 -9z"/>
<path d="M2576 3154 c-5 -14 -4 -15 9 -4 17 14 19 20 6 20 -5 0 -12 -7 -15
-16z"/>
<path d="M2710 3155 c0 -8 2 -15 4 -15 2 0 6 7 10 15 3 8 1 15 -4 15 -6 0 -10
-7 -10 -15z"/>
<path d="M2735 3150 c-3 -5 -1 -10 4 -10 6 0 11 5 11 10 0 6 -2 10 -4 10 -3 0
-8 -4 -11 -10z"/>
<path d="M2119 3118 c-4 -15 -6 -50 -3 -40 3 6 9 10 14 7 4 -3 6 4 3 15 -5 17
-11 26 -14 18z"/>
<path d="M2915 3111 c-3 -5 -1 -12 5 -16 5 -3 10 1 10 9 0 18 -6 21 -15 7z"/>
<path d="M2993 3075 c0 -8 4 -15 9 -15 4 0 8 7 8 15 0 8 -4 15 -8 15 -5 0 -9
-7 -9 -15z"/>
<path d="M3137 2999 c4 -13 8 -18 11 -10 2 7 -1 18 -6 23 -8 8 -9 4 -5 -13z"/>
<path d="M2285 2980 c-3 -6 1 -7 9 -4 18 7 21 14 7 14 -6 0 -13 -4 -16 -10z"/>
<path d="M2495 2841 c-3 -6 -12 -8 -18 -4 -7 3 -3 -3 7 -15 21 -24 36 -31 17
-8 -9 11 -9 15 1 19 7 2 10 7 7 11 -4 4 -10 2 -14 -3z"/>
<path d="M3340 2746 c0 -1 9 -9 19 -18 17 -14 20 -14 25 -2 3 9 1 12 -4 9 -6
-3 -10 -2 -10 3 0 5 -7 9 -15 9 -8 0 -15 -1 -15 -1z"/>
<path d="M3081 2714 c0 -11 3 -14 6 -6 3 7 2 16 -1 19 -3 4 -6 -2 -5 -13z"/>
<path d="M3095 2689 c-11 -17 1 -21 15 -4 8 9 8 15 2 15 -6 0 -14 -5 -17 -11z"/>
<path d="M2643 2675 c0 -8 3 -13 5 -10 3 3 10 -3 17 -12 9 -13 14 -13 20 -3 5
8 4 11 -3 6 -6 -3 -13 3 -17 14 -7 23 -22 27 -22 5z"/>
<path d="M3153 2675 c0 -8 4 -15 9 -15 4 0 8 7 8 15 0 8 -4 15 -8 15 -5 0 -9
-7 -9 -15z"/>
<path d="M3097 2584 c-7 -8 3 -34 13 -34 9 0 8 26 -1 35 -3 3 -8 2 -12 -1z"/>
<path d="M3276 2493 c-6 -14 -5 -15 5 -6 7 7 10 15 7 18 -3 3 -9 -2 -12 -12z"/>
<path d="M3300 2440 c0 -5 7 -7 15 -4 8 4 15 8 15 10 0 2 -7 4 -15 4 -8 0 -15
-4 -15 -10z"/>
<path d="M3317 2424 c-8 -8 3 -34 15 -34 7 0 6 5 -1 13 -6 8 -8 17 -4 20 3 4
4 7 1 7 -2 0 -7 -3 -11 -6z"/>
<path d="M3139 2398 c-6 -11 -3 -58 2 -58 14 0 20 18 8 25 -5 4 -8 13 -5 21 4
11 0 21 -5 12z"/>
<path d="M3384 2256 c1 -8 5 -18 8 -22 4 -3 5 1 4 10 -1 8 -5 18 -8 22 -4 3
-5 -1 -4 -10z"/>
<path d="M3067 2129 c7 -7 15 -10 18 -7 3 3 -2 9 -12 12 -14 6 -15 5 -6 -5z"/>
<path d="M3100 2066 c0 -2 8 -10 18 -17 15 -13 16 -12 3 4 -13 16 -21 21 -21
13z"/>
<path d="M1976 2915 c-3 -8 -1 -15 4 -15 6 0 10 7 10 15 0 8 -2 15 -4 15 -2 0
-6 -7 -10 -15z"/>
<path d="M2206 2788 c3 -5 10 -6 15 -3 13 9 11 12 -6 12 -8 0 -12 -4 -9 -9z"/>
<path d="M2313 2712 c0 -11 5 -18 9 -16 4 3 8 0 8 -7 0 -7 3 -10 6 -6 3 3 -1
16 -9 28 -16 22 -16 22 -14 1z"/>
<path d="M1401 2686 c-9 -10 -8 -15 2 -19 8 -3 13 3 13 14 0 23 0 23 -15 5z"/>
<path d="M2542 2486 c7 -8 15 -12 17 -11 5 6 -10 25 -20 25 -5 0 -4 -6 3 -14z"/>
<path d="M2690 2322 c0 -7 5 -12 11 -12 8 0 7 -6 -2 -17 -13 -16 -12 -17 3 -5
14 11 18 10 27 -6 6 -11 7 -23 3 -27 -4 -5 -1 -5 6 -1 8 5 9 13 3 24 -13 25
-51 57 -51 44z"/>
<path d="M2800 2181 c8 -6 11 -11 6 -11 -5 0 -3 -6 3 -13 6 -8 7 -17 3 -21 -4
-4 0 -6 8 -4 9 2 15 -4 14 -13 -1 -9 5 -16 12 -16 15 0 10 12 -20 45 -12 13
-20 27 -18 30 2 4 -2 8 -10 10 -9 2 -8 0 2 -7z"/>
<path d="M955 2000 c-3 -5 -1 -10 4 -10 6 0 11 5 11 10 0 6 -2 10 -4 10 -3 0
-8 -4 -11 -10z"/>
<path d="M2915 1980 c-3 -6 1 -7 9 -4 18 7 21 14 7 14 -6 0 -13 -4 -16 -10z"/>
<path d="M2990 1859 c0 -5 5 -7 10 -4 6 3 10 8 10 11 0 2 -4 4 -10 4 -5 0 -10
-5 -10 -11z"/>
<path d="M3084 1695 c8 -9 13 -22 10 -30 -4 -8 -2 -15 4 -15 12 0 10 43 -3 52
-18 14 -27 8 -11 -7z"/>
<path d="M874 1686 c-19 -15 -19 -15 2 -13 11 0 21 7 21 14 0 16 1 16 -23 -1z"/>
<path d="M1685 1640 c-3 -5 -1 -10 4 -10 6 0 11 5 11 10 0 6 -2 10 -4 10 -3 0
-8 -4 -11 -10z"/>
<path d="M2366 1633 c-6 -14 -5 -15 5 -6 7 7 10 15 7 18 -3 3 -9 -2 -12 -12z"/>
<path d="M1705 1620 c-3 -6 1 -7 9 -4 18 7 21 14 7 14 -6 0 -13 -4 -16 -10z"/>
<path d="M2217 1583 c-4 -3 -7 -11 -7 -17 0 -6 5 -5 12 2 6 6 9 14 7 17 -3 3
-9 2 -12 -2z"/>
<path d="M2180 1559 c0 -5 -4 -8 -9 -4 -5 3 -16 -1 -24 -10 -13 -13 -16 -13
-21 0 -3 8 -10 15 -16 15 -5 0 -2 -9 7 -20 16 -18 18 -19 36 -2 11 9 22 16 25
14 4 -2 8 1 10 7 2 6 1 11 -2 11 -3 0 -6 -5 -6 -11z"/>
<path d="M1947 1522 c3 -7 9 -10 12 -5 3 4 10 11 15 15 4 4 -1 6 -12 5 -12 -1
-18 -6 -15 -15z"/>
<path d="M2524 1467 c3 -20 26 -47 40 -46 7 0 6 2 -1 6 -7 2 -13 10 -13 18 0
7 -6 18 -14 24 -11 10 -14 9 -12 -2z"/>
<path d="M2615 1340 c3 -5 8 -10 11 -10 2 0 4 5 4 10 0 6 -5 10 -11 10 -5 0
-7 -4 -4 -10z"/>
<path d="M1197 1135 c3 -8 9 -12 14 -9 12 7 11 11 -5 17 -10 4 -13 1 -9 -8z"/>
<path d="M1130 1102 c0 -5 7 -9 15 -9 8 0 12 4 9 9 -3 4 -9 8 -15 8 -5 0 -9
-4 -9 -8z"/>
<path d="M2156 807 c3 -10 9 -15 12 -12 3 3 0 11 -7 18 -10 9 -11 8 -5 -6z"/>
<path d="M2275 760 c-3 -5 -1 -10 4 -10 6 0 11 5 11 10 0 6 -2 10 -4 10 -3 0
-8 -4 -11 -10z"/>
<path d="M1545 729 c-4 -6 -5 -12 -2 -15 2 -3 7 2 10 11 7 17 1 20 -8 4z"/>
<path d="M1565 720 c-3 -6 1 -7 9 -4 18 7 21 14 7 14 -6 0 -13 -4 -16 -10z"/>
<path d="M2540 679 c0 -5 5 -7 10 -4 6 3 10 8 10 11 0 2 -4 4 -10 4 -5 0 -10
-5 -10 -11z"/>
<path d="M1515 640 c21 -24 26 -25 19 -6 -3 8 -13 17 -22 21 -13 5 -13 2 3
-15z"/>
<path d="M2396 561 c-4 -5 -2 -12 3 -15 5 -4 12 -2 15 3 4 5 2 12 -3 15 -5 4
-12 2 -15 -3z"/>
<path d="M2367 539 c7 -7 15 -10 18 -7 3 3 -2 9 -12 12 -14 6 -15 5 -6 -5z"/>
<path d="M2350 516 c0 -2 7 -7 16 -10 8 -3 12 -2 9 4 -6 10 -25 14 -25 6z"/>
<path d="M2310 506 c0 -2 7 -7 16 -10 8 -3 12 -2 9 4 -6 10 -25 14 -25 6z"/>
<path d="M1827 376 c-7 -17 70 -69 79 -54 4 7 2 8 -4 4 -7 -4 -12 -3 -12 3 0
5 -9 13 -20 16 -11 4 -18 11 -15 16 4 5 -2 6 -12 2 -16 -6 -16 -5 -4 10 7 9 9
17 3 17 -5 0 -12 -6 -15 -14z"/>
<path d="M2147 3986 c-4 -10 -1 -13 8 -9 8 3 12 9 9 14 -7 12 -11 11 -17 -5z"/>
<path d="M2546 3895 c-3 -8 0 -17 6 -21 6 -4 8 -3 4 4 -3 5 -1 12 6 14 8 3 9
6 1 11 -6 4 -13 0 -17 -8z"/>
<path d="M2581 3883 c-1 -17 16 -25 25 -12 4 7 3 9 -4 5 -5 -3 -13 0 -15 6 -4
9 -6 10 -6 1z"/>
<path d="M1356 3847 c3 -10 9 -15 12 -12 3 3 0 11 -7 18 -10 9 -11 8 -5 -6z"/>
<path d="M819 3451 c11 -7 11 -9 0 -13 -8 -3 -11 -8 -8 -12 3 -3 13 2 22 12
15 17 15 18 -6 19 -15 2 -18 0 -8 -6z"/>
<path d="M3200 3440 c0 -5 5 -10 11 -10 5 0 7 5 4 10 -3 6 -8 10 -11 10 -2 0
-4 -4 -4 -10z"/>
<path d="M650 3241 c0 -5 7 -12 16 -15 14 -5 15 -4 4 9 -14 17 -20 19 -20 6z"/>
<path d="M3380 3195 c7 -8 17 -15 22 -15 5 0 3 7 -6 15 -8 8 -18 15 -22 15 -3
0 -1 -7 6 -15z"/>
<path d="M425 2629 c-4 -6 -5 -12 -2 -15 2 -3 7 2 10 11 7 17 1 20 -8 4z"/>
<path d="M3635 2441 c-3 -5 -2 -12 3 -15 5 -3 9 1 9 9 0 17 -3 19 -12 6z"/>
<path d="M3633 2185 c0 -8 4 -12 9 -9 5 3 6 10 3 15 -9 13 -12 11 -12 -6z"/>
<path d="M420 2001 c0 -6 4 -12 8 -15 5 -3 9 1 9 9 0 8 -4 15 -9 15 -4 0 -8
-4 -8 -9z"/>
<path d="M497 1724 c-8 -8 3 -34 15 -34 7 0 6 5 -1 13 -6 8 -8 17 -4 20 3 4 4
7 1 7 -2 0 -7 -3 -11 -6z"/>
<path d="M518 1663 c7 -3 16 -2 19 1 4 3 -2 6 -13 5 -11 0 -14 -3 -6 -6z"/>
<path d="M3316 1331 c-4 -5 3 -7 14 -4 23 6 26 13 6 13 -8 0 -17 -4 -20 -9z"/>
<path d="M3251 1194 c0 -11 3 -14 6 -6 3 7 2 16 -1 19 -3 4 -6 -2 -5 -13z"/>
<path d="M913 923 c0 -9 4 -10 14 -2 7 6 13 12 13 14 0 1 -6 2 -13 2 -8 0 -14
-6 -14 -14z"/>
<path d="M733 883 c4 -3 1 -13 -6 -22 -11 -14 -10 -14 5 -2 16 12 16 31 1 31
-4 0 -3 -3 0 -7z"/>
<path d="M696 746 c3 -9 13 -16 22 -16 8 0 13 1 11 3 -2 1 -12 9 -22 16 -15
12 -17 12 -11 -3z"/>
<path d="M826 667 c3 -10 9 -15 12 -12 3 3 0 11 -7 18 -10 9 -11 8 -5 -6z"/>
<path d="M3086 647 c3 -10 9 -15 12 -12 3 3 0 11 -7 18 -10 9 -11 8 -5 -6z"/>
<path d="M2910 640 c0 -5 5 -10 11 -10 5 0 7 5 4 10 -3 6 -8 10 -11 10 -2 0
-4 -4 -4 -10z"/>
<path d="M2753 595 c0 -8 4 -12 9 -9 5 3 6 10 3 15 -9 13 -12 11 -12 -6z"/>
<path d="M2636 504 c-20 -19 -20 -21 -1 -21 8 0 12 4 9 8 -2 4 4 12 13 18 10
6 13 11 6 11 -6 0 -19 -7 -27 -16z"/>
<path d="M1340 506 c0 -2 7 -6 15 -10 8 -3 15 -1 15 4 0 6 -7 10 -15 10 -8 0
-15 -2 -15 -4z"/>
<path d="M2594 454 c-18 -14 -18 -14 6 -3 31 14 36 19 24 19 -6 0 -19 -7 -30
-16z"/>
<path d="M1470 405 c0 -8 4 -15 10 -15 5 0 7 7 4 15 -4 8 -8 15 -10 15 -2 0
-4 -7 -4 -15z"/>
<path d="M2470 345 c-11 -13 -10 -14 4 -9 9 3 16 10 16 15 0 13 -6 11 -20 -6z"/>
<path d="M1690 219 c0 -5 5 -7 10 -4 6 3 10 8 10 11 0 2 -4 4 -10 4 -5 0 -10
-5 -10 -11z"/>
<path d="M2255 169 c-4 -6 -5 -12 -2 -15 2 -3 7 2 10 11 7 17 1 20 -8 4z"/>
<path d="M2160 110 c-13 -8 -12 -10 3 -10 9 0 17 5 17 10 0 12 -1 12 -20 0z"/>
</g>
</svg>
