<?xml version="1.0" encoding="utf-8"?>
<!-- Generated by IcoMoon.io -->
<!DOCTYPE svg PUBLIC "-//W3C//DTD SVG 1.1//EN" "http://www.w3.org/Graphics/SVG/1.1/DTD/svg11.dtd">
<svg version="1.1" xmlns="http://www.w3.org/2000/svg" xmlns:xlink="http://www.w3.org/1999/xlink" width="32" height="32" viewBox="0 0 32 32">
<path fill="#444444" d="M17.28 16.96l6.187-6.187c0.32-0.32 0.32-0.853 0-1.173s-0.853-0.32-1.173 0l-6.293 6.4-6.293-6.4c-0.32-0.213-0.853-0.213-1.173 0-0.32 0.32-0.32 0.853 0 1.173l6.187 6.187-6.187 6.187c-0.32 0.32-0.32 0.853 0 1.173s0.853 0.32 1.173 0l6.293-6.293 6.293 6.293c0.107 0.107 0.32 0.213 0.533 0.213s0.427-0.107 0.533-0.213c0.32-0.32 0.32-0.853 0-1.173l-6.080-6.187z"></path>
</svg>
